<svg width="778" height="726" viewBox="0 0 778 726" fill="none" xmlns="http://www.w3.org/2000/svg">
<path d="M189.575 697.998C189.575 697.998 4.01093 521.521 99.1269 375C146.792 301.577 204.579 325.522 274.332 260.85C354.828 186.217 422.18 123.737 512.929 150.176C595.727 174.299 589.667 289.308 620.15 330.963C650.634 372.618 710.428 396.383 728.015 454.716C745.601 513.049 728.612 621.328 620.374 698H189.575V697.998Z" fill="#EAF1F1"/>
<path d="M611 526C644.137 526 671 499.137 671 466C671 432.863 644.137 406 611 406C577.863 406 551 432.863 551 466C551 499.137 577.863 526 611 526Z" fill="#73E4BC"/>
<path d="M68.9163 371.545C68.1523 371.163 67.3883 370.781 66.6243 370.399C66.6033 370.387 66.5823 370.421 66.6052 370.431C67.3692 370.813 68.1332 371.195 68.8972 371.577C68.9182 371.589 68.9373 371.556 68.9163 371.545Z" fill="#12115A"/>
<path d="M330.293 238.587C347.576 238.587 361.587 224.576 361.587 207.293C361.587 190.011 347.576 176 330.293 176C313.011 176 299 190.011 299 207.293C299 224.576 313.011 238.587 330.293 238.587Z" fill="#73E4BC"/>
<path d="M410.293 63.5869C427.576 63.5869 441.587 49.5763 441.587 32.2934C441.587 15.0106 427.576 1 410.293 1C393.011 1 379 15.0106 379 32.2934C379 49.5763 393.011 63.5869 410.293 63.5869Z" fill="#73E4BC"/>
<path d="M676 675C692.016 675 705 662.016 705 646C705 629.984 692.016 617 676 617C659.984 617 647 629.984 647 646C647 662.016 659.984 675 676 675Z" fill="white"/>
<path d="M230.583 661.651L228.441 652.727C228.441 652.727 217.845 654.427 217.936 658.201C218.106 665.318 230.583 661.651 230.583 661.651Z" fill="white"/>
<path d="M237.613 644.105L235.501 636.439C235.501 636.439 225.044 637.898 225.133 641.145C225.301 647.261 237.613 644.105 237.613 644.105Z" fill="white"/>
<path d="M243.624 676.461L243.567 667.484C243.567 667.484 233.761 666.754 233.058 670.372C231.732 677.19 243.624 676.461 243.624 676.461Z" fill="white"/>
<path d="M259.007 688.52L259.844 682.21C259.844 682.21 250.611 680.38 249.585 682.825C247.652 687.436 259.007 688.52 259.007 688.52Z" fill="white"/>
<path d="M261.641 613.561L272.379 613.034L272.364 607.731C272.364 607.731 267.868 608.018 265.031 609.149C262.195 610.279 261.641 613.561 261.641 613.561Z" fill="white"/>
<path d="M265.593 725.521C261.37 722.003 257.162 718.458 253.086 714.768L265.593 725.521Z" fill="#FFDFD5"/>
<path d="M578.993 113.989L543.495 117.481L508 120.972L522.724 88.4872L537.448 56L558.22 84.9957L578.993 113.989Z" fill="#2F2E6E"/>
<path d="M756.458 384.868L736.229 361.037L716 337.206L746.753 331.602L777.504 326L766.98 355.433L756.458 384.868Z" fill="#2F2E6E"/>
<path d="M685.108 39.0001L660 47.6997L668.7 72.8075L693.807 64.1079L685.108 39.0001Z" fill="#73E4BC"/>
<path d="M125.108 417L100 425.7L108.7 450.807L133.807 442.108L125.108 417Z" fill="#73E4BC"/>
<path d="M36.7676 68.5003L14.5003 54L1.77644e-05 76.2673L22.2673 90.7675L36.7676 68.5003Z" fill="white"/>
<path d="M485.074 204.652C487.878 192.778 480.526 180.88 468.652 178.076C456.778 175.273 444.88 182.625 442.076 194.499C439.273 206.372 446.625 218.27 458.499 221.074C470.373 223.878 482.271 216.525 485.074 204.652Z" fill="white"/>
<path d="M518.421 527.668C514.305 533.459 515.669 541.519 521.46 545.635C521.691 545.8 521.903 545.941 522.104 546.063L523.015 546.623L524.295 544.822L522.423 543.492C517.976 540.037 516.999 533.635 520.291 528.999C523.584 524.364 529.952 523.183 534.679 526.247L534.691 526.232L536.563 527.561L537.831 525.777L537.006 525.097C536.824 524.948 536.622 524.794 536.391 524.629C530.598 520.513 522.536 521.877 518.421 527.668Z" fill="#FFDFD5"/>
<path d="M604.393 662.258C604.217 661.758 604.007 661.265 603.766 660.78C600.595 654.423 592.841 651.83 586.484 655C586.228 655.13 586.007 655.248 585.804 655.367L584.88 655.909L585.869 657.888L587.921 656.86C593.066 654.565 599.174 656.715 601.711 661.803C602.207 662.797 602.532 663.828 602.696 664.871L604.393 662.258Z" fill="#FFDFD5"/>
<path d="M551.655 638.828C555.106 637.398 556.746 633.44 555.316 629.988C553.886 626.536 549.928 624.897 546.476 626.327C543.024 627.757 541.385 631.714 542.815 635.166C544.245 638.618 548.203 640.258 551.655 638.828Z" fill="#EAF1F1"/>
<path d="M214.594 589.608C218.33 589.608 221.359 586.579 221.359 582.842C221.359 579.106 218.33 576.077 214.594 576.077C210.857 576.077 207.829 579.106 207.829 582.842C207.829 586.579 210.857 589.608 214.594 589.608Z" fill="#EAF1F1"/>
<path d="M704.66 556.998L720.539 543.613L736.417 530.229L740.069 550.672L743.721 571.117L724.191 564.058L704.66 556.998Z" fill="#2F2E6E"/>
<path d="M425.09 101H7V697.57H425.09V101Z" fill="#97D3D3"/>
<path d="M381.937 141.293H46.4821V658.518H381.937V141.293Z" fill="#EAF1F1"/>
<path d="M382.7 659.233H45.7668V140.578H382.652V659.233H382.7ZM47.1974 657.802H381.221V142.008H47.1974V657.802Z" fill="#2F2E6E"/>
<path d="M136.604 245.911C136.366 245.625 135.889 245.577 135.603 245.815L119.82 258.833C114.574 252.253 106.468 248.057 97.4559 248.057C87.7762 248.057 79.2408 252.873 74.0432 260.216L72.0405 258.023C71.7544 257.736 71.3253 257.736 71.0392 257.975C70.7531 258.261 70.7531 258.69 70.9915 258.976L73.2326 261.408C70.4193 265.843 68.798 271.088 68.798 276.715C68.798 292.545 81.6726 305.372 97.4559 305.372C113.287 305.372 126.114 292.498 126.114 276.715C126.114 270.468 124.111 264.698 120.678 259.978L136.509 246.912C136.843 246.674 136.89 246.197 136.604 245.911ZM97.4559 249.439C106.039 249.439 113.716 253.445 118.723 259.691L93.2121 280.72L75.0446 261.217C79.956 254.112 88.1576 249.439 97.4559 249.439ZM124.683 276.715C124.683 291.735 112.476 303.942 97.4559 303.942C82.4356 303.942 70.2285 291.735 70.2285 276.715C70.2285 271.517 71.7067 266.653 74.234 262.505L93.1167 282.723L119.629 260.884C122.824 265.318 124.683 270.802 124.683 276.715Z" fill="#2F2E6E"/>
<path d="M132.599 345.808C132.36 345.522 131.884 345.474 131.597 345.712L115.814 358.73C110.569 352.15 102.463 347.954 93.4505 347.954C83.7708 347.954 75.2354 352.77 70.0379 360.113L68.0351 357.919C67.749 357.633 67.3199 357.633 67.0338 357.872C66.7477 358.158 66.7477 358.587 66.9861 358.873L69.2272 361.305C66.4139 365.74 64.7927 370.985 64.7927 376.611C64.7927 392.442 77.6672 405.269 93.4505 405.269C109.282 405.269 122.108 392.395 122.108 376.611C122.108 370.365 120.106 364.595 116.672 359.875L132.503 346.809C132.79 346.571 132.837 346.142 132.599 345.808ZM93.4029 349.384C101.986 349.384 109.663 353.39 114.67 359.636L89.159 380.665L70.9915 361.162C75.903 354.057 84.1522 349.384 93.4029 349.384ZM120.678 376.611C120.678 391.632 108.471 403.839 93.4505 403.839C78.4302 403.839 66.2232 391.632 66.2232 376.611C66.2232 371.414 67.7013 366.55 70.2286 362.402L89.1113 382.62L115.623 360.781C118.771 365.263 120.678 370.746 120.678 376.611Z" fill="#2F2E6E"/>
<path d="M131.311 445.753C131.073 445.467 130.596 445.419 130.31 445.658L114.527 458.675C109.282 452.095 101.175 447.899 92.1631 447.899C82.4833 447.899 73.9479 452.715 68.7504 460.058L66.7477 457.865C66.4616 457.578 66.0324 457.578 65.7463 457.817C65.4602 458.103 65.4602 458.532 65.6986 458.818L67.9398 461.25C65.1264 465.685 63.5052 470.93 63.5052 476.557C63.5052 492.388 76.3798 505.214 92.1631 505.214C107.994 505.214 120.821 492.34 120.821 476.557C120.821 470.31 118.818 464.54 115.385 459.82L131.216 446.754C131.502 446.516 131.55 446.039 131.311 445.753ZM92.1154 449.329C100.698 449.329 108.376 453.335 113.382 459.581L87.8715 480.61L69.7041 461.107C74.6155 454.002 82.8171 449.329 92.1154 449.329ZM119.39 476.557C119.39 491.577 107.183 503.784 92.1631 503.784C77.1427 503.784 64.9357 491.577 64.9357 476.557C64.9357 471.359 66.4139 466.495 68.9411 462.347L87.8239 482.565L114.336 460.726C117.483 465.208 119.39 470.644 119.39 476.557Z" fill="#2F2E6E"/>
<path d="M356.283 253.969H152.769C152.388 253.969 152.054 253.636 152.054 253.254C152.054 252.873 152.388 252.539 152.769 252.539H356.283C356.664 252.539 356.998 252.873 356.998 253.254C356.998 253.636 356.664 253.969 356.283 253.969Z" fill="#2F2E6E"/>
<path d="M300.731 286.919H151.052C150.671 286.919 150.337 286.585 150.337 286.204C150.337 285.822 150.671 285.488 151.052 285.488H300.731C301.113 285.488 301.447 285.822 301.447 286.204C301.447 286.585 301.113 286.919 300.731 286.919Z" fill="#2F2E6E"/>
<path d="M354.185 357.681H148.477C148.096 357.681 147.762 357.347 147.762 356.966C147.762 356.585 148.096 356.251 148.477 356.251H354.185C354.566 356.251 354.9 356.585 354.9 356.966C354.9 357.347 354.566 357.681 354.185 357.681Z" fill="#2F2E6E"/>
<path d="M245.037 390.631H146.761C146.379 390.631 146.046 390.297 146.046 389.915C146.046 389.534 146.379 389.2 146.761 389.2H245.085C245.466 389.2 245.8 389.534 245.8 389.915C245.752 390.297 245.466 390.631 245.037 390.631Z" fill="#2F2E6E"/>
<path d="M356.283 461.441H144.663C144.281 461.441 143.948 461.107 143.948 460.726C143.948 460.344 144.281 460.01 144.663 460.01H356.283C356.664 460.01 356.998 460.344 356.998 460.726C356.998 461.107 356.664 461.441 356.283 461.441Z" fill="#2F2E6E"/>
<path d="M308.981 494.343H142.946C142.565 494.343 142.231 494.009 142.231 493.627C142.231 493.246 142.565 492.912 142.946 492.912H308.981C309.362 492.912 309.696 493.246 309.696 493.627C309.696 494.009 309.362 494.343 308.981 494.343Z" fill="#2F2E6E"/>
<path d="M276.365 538.975H78.0963C77.7148 538.975 77.381 538.641 77.381 538.259C77.381 537.878 77.7148 537.544 78.0963 537.544H276.365C276.746 537.544 277.08 537.878 277.08 538.259C277.08 538.689 276.746 538.975 276.365 538.975Z" fill="#2F2E6E"/>
<path d="M274.648 572.734H76.3797C75.9983 572.734 75.6645 572.401 75.6645 572.019C75.6645 571.638 75.9983 571.304 76.3797 571.304H274.648C275.03 571.304 275.364 571.638 275.364 572.019C275.364 572.401 275.03 572.734 274.648 572.734Z" fill="#2F2E6E"/>
<path d="M309.433 45.5393C309.433 137.652 266.569 212.254 213.672 212.254C160.776 212.254 117.912 137.652 117.912 45.5393C117.912 45.5393 153.176 33.6832 164.363 28.576C177.496 22.5567 215.253 1.03345 215.253 1.03345C215.253 1.03345 252.159 22.7391 264.501 28.576C275.75 33.8656 309.433 45.5393 309.433 45.5393Z" fill="#ACFFD2"/>
<path d="M213.672 213.227C187.772 213.227 163.451 195.716 145.151 163.918C126.971 132.301 117 90.2277 117 45.5394V44.8706L117.608 44.6882C117.973 44.5666 152.933 32.7714 163.999 27.7249C176.949 21.8273 214.463 0.425617 214.828 0.243216L215.314 0L215.74 0.243216C216.104 0.486417 252.767 22.0097 264.927 27.7249C275.932 32.9538 309.372 44.5666 309.737 44.6882L310.345 44.8706V45.5394C310.345 90.2277 300.313 132.241 282.194 163.918C263.954 195.716 239.573 213.227 213.672 213.227ZM118.824 46.2082C119.006 137.348 161.506 211.403 213.672 211.403C265.839 211.403 308.278 137.348 308.521 46.2082C303.9 44.5666 274.473 34.2914 264.137 29.4274C252.645 24.0161 219.57 4.62082 215.253 2.12801C210.876 4.62082 176.949 23.8337 164.728 29.4274C154.514 34.109 123.627 44.6274 118.824 46.2082Z" fill="#12115A"/>
<path d="M291.983 58.3681C291.983 133.7 256.901 194.743 213.672 194.743C170.443 194.743 135.362 133.7 135.362 58.3681C135.362 58.3681 166.613 48.2753 176.524 43.7761C186.616 39.1552 215.375 21.7056 215.375 21.7056C215.375 21.7056 243.829 40.0064 253.983 44.8705C262.982 49.1265 291.983 58.3681 291.983 58.3681Z" fill="#EAF1F1"/>
<path d="M213.672 195.655C192.392 195.655 172.45 181.306 157.493 155.223C142.597 129.322 134.45 94.9092 134.45 58.3074V57.6386L135.058 57.4562C135.362 57.3346 166.37 47.3633 176.098 42.8641C186.069 38.3041 214.585 20.976 214.828 20.8544L215.314 20.5504L215.8 20.8544C216.104 21.0368 244.316 39.1553 254.287 43.9585C263.164 48.2145 291.922 57.3954 292.226 57.4562L292.834 57.6386V58.3074C292.834 94.9092 284.626 129.322 269.791 155.223C254.895 181.306 234.953 195.655 213.672 195.655ZM136.274 59.037C136.456 133.396 171.112 193.831 213.672 193.831C256.233 193.831 290.889 133.396 291.071 59.037C286.633 57.6386 261.887 49.6129 253.558 45.6001C244.073 41.0401 219.266 25.232 215.375 22.7392C211.545 25.0496 186.252 40.3105 176.949 44.5665C167.768 48.7617 140.895 57.517 136.274 59.037Z" fill="#12115A"/>
<path d="M264.562 90.8358H229.48V55.8148H197.864V90.8358H162.843V122.513H197.864V157.534H229.48V122.513H264.562V90.8358Z" fill="#12115A"/>
<path d="M341.603 354.439C339.882 349.246 343.272 343.449 349.176 341.491C355.08 339.533 361.263 342.156 362.984 347.349C364.705 352.542 361.314 358.339 355.411 360.297C349.509 362.255 343.326 359.632 341.603 354.439Z" fill="#FFDFD5"/>
<path d="M306.53 395.143L478.478 346.468C478.478 346.468 478.05 284.663 399.667 280.285C376.117 278.969 354.925 300.426 336.78 318.147C318.635 335.866 306.53 395.143 306.53 395.143Z" fill="#12115A"/>
<path d="M367.491 346.904L428.753 336.437C429.925 336.236 431.041 337.025 431.239 338.2C431.239 338.2 433.635 368.313 443.601 385.448C453.567 402.582 471.109 406.738 471.109 406.738C471.311 407.911 413.648 481.488 413.648 481.488C413.648 481.488 353.231 407.246 353.031 406.074C353.031 406.074 365.348 397.702 368.038 383.99C370.727 370.278 365.728 349.392 365.728 349.392C365.528 348.22 366.317 347.104 367.491 346.904Z" fill="#FFDFD5"/>
<path d="M367.873 346.904L429.135 336.437C430.308 336.236 431.423 337.025 431.622 338.2C431.622 338.2 434.017 368.313 443.983 385.448C437.999 395.143 397.782 399.131 367.94 372.228C370.63 358.516 366.11 349.392 366.11 349.392C365.91 348.22 366.699 347.104 367.873 346.904Z" fill="#12115A"/>
<path d="M345.173 330.027C345.173 301.629 367.839 278.61 395.797 278.61C423.758 278.61 446.422 301.631 446.422 330.027C446.422 358.423 423.811 378.574 395.853 378.574C367.896 378.574 345.173 358.425 345.173 330.027Z" fill="#FFDFD5"/>
<path d="M345.173 330.027C345.173 301.629 367.839 278.61 395.797 278.61C423.758 278.61 446.422 301.631 446.422 330.027C446.422 358.423 423.811 378.574 395.853 378.574C367.896 378.574 345.173 358.425 345.173 330.027Z" fill="#FFDFD5"/>
<path d="M350.118 399.131L413.515 481.992L473.164 401.434C473.164 401.434 528.726 418.237 548.64 440.935C584.758 482.107 630.953 615.979 604.782 661.597C591.042 685.549 551.264 697.696 551.264 697.696C551.264 697.696 256.1 699.033 246.206 697.349C229.431 694.495 206.606 684.898 201.002 655.911C195.398 626.925 235.186 482.013 261.681 455.598C296.334 421.052 350.118 399.131 350.118 399.131Z" fill="white"/>
<path d="M413.568 485.173C413.228 485.173 412.907 485.012 412.703 484.741L350.024 401.328C349.665 400.85 349.761 400.17 350.24 399.811C350.718 399.452 351.398 399.547 351.757 400.027L413.563 482.279L474.247 400.327C474.604 399.845 475.282 399.746 475.762 400.101C476.243 400.457 476.344 401.135 475.987 401.616L414.439 484.735C414.235 485.01 413.914 485.173 413.572 485.175C413.57 485.173 413.57 485.173 413.568 485.173Z" fill="#12115A"/>
<path d="M363.435 354.017C363.435 348.523 367.78 344.071 373.139 344.071C378.499 344.071 382.844 348.523 382.844 354.017C382.844 359.51 378.499 363.962 373.139 363.962C367.778 363.962 363.435 359.51 363.435 354.017Z" fill="#EBB1B1"/>
<path d="M454.519 337.266C452.303 337.432 450.175 339.09 449.228 341.647L446.508 350.852C444.422 350.405 442.012 351.245 440.335 353.251L419.256 377.699L400.404 387.415C400.404 387.415 390.066 389.833 382.773 376.921C379.725 371.558 378.527 363.498 378.527 363.498C377.876 359.122 375.668 354.496 371.074 354.872C366.483 355.249 364.724 360.747 365.375 365.121L368.782 396.019L368.58 415.224L295.784 537.384C295.784 537.384 311.032 551.64 330.009 560.602C348.987 569.56 371.695 573.22 371.695 573.22L421.987 445.895L459.63 396.69L466.85 375.2C467.728 371.755 466.093 368.309 463.198 367.285L466.406 354.309C467.319 350.739 465.551 347.125 462.456 346.251C461.471 345.974 460.478 346.037 459.542 346.323L459.637 345.941C460.898 342.532 459.591 338.796 456.715 337.61C455.997 337.316 455.256 337.211 454.519 337.266Z" fill="#FFDFD5"/>
<path d="M454.519 337.266C452.303 337.432 450.175 339.09 449.228 341.647L446.508 350.852C444.422 350.405 442.012 351.245 440.335 353.251L419.256 377.699L400.404 387.415C400.404 387.415 390.066 389.833 382.773 376.921C379.725 371.558 378.527 363.498 378.527 363.498C377.876 359.122 375.668 354.496 371.074 354.872C366.483 355.249 364.724 360.747 365.375 365.121L368.782 396.019L368.58 415.224L295.784 537.384C295.784 537.384 311.032 551.64 330.009 560.602C348.987 569.56 371.695 573.22 371.695 573.22L421.987 445.895L459.63 396.69L466.85 375.2C467.728 371.755 466.093 368.309 463.198 367.285L466.406 354.309C467.319 350.739 465.551 347.125 462.456 346.251C461.471 345.974 460.478 346.037 459.542 346.323L459.637 345.941C460.898 342.532 459.591 338.796 456.715 337.61C455.997 337.316 455.256 337.211 454.519 337.266Z" fill="#FFDFD5"/>
<path d="M357.235 278.686C357.235 278.686 351.638 261.706 386.448 250.924C402.509 245.949 415.516 247.213 424.822 256.557C434.127 265.901 437.688 270.88 449.957 273.692C462.223 276.503 476.445 264.504 490.935 270.939C511.123 279.903 504.981 292.337 512.533 303.556C520.089 314.776 538.78 310.239 537.443 329.62C537.409 329.907 505.756 339.044 505.855 338.993C503.159 328.367 495.786 323.533 495.786 323.533C495.786 323.533 498.762 335.925 492.906 342.784C493.139 342.803 472.686 348.68 472.686 348.68C472.686 348.68 475.693 295.418 438.333 311.882C427.312 312.392 432.37 299.969 416.131 293.026C404.752 288.162 386.509 296.365 374.537 293.592C362.565 290.819 357.235 278.686 357.235 278.686Z" fill="#12115A"/>
<path d="M436.61 321.946C434.888 316.753 438.28 310.956 444.182 308.998C450.087 307.04 456.268 309.665 457.991 314.856C459.714 320.049 456.322 325.846 450.416 327.804C444.514 329.762 438.329 327.139 436.61 321.946Z" fill="#FFDFD5"/>
<path d="M316.359 392.255C316.359 392.255 299.891 396.764 299.98 397.024C294.247 392.925 292.419 372.937 292.419 372.937C292.419 372.937 285.598 385.822 287.816 400.747C288.142 400.233 274.587 404.496 274.587 404.496C274.587 404.496 260.092 347.509 291.678 326.658C304.238 318.365 310.673 320.525 316.882 313.414C323.091 306.303 319.124 288.784 330.263 281.32C344.831 271.56 355.901 276.962 355.901 276.962C355.901 276.962 356.556 280.751 361.328 285.929C365.629 290.597 369.476 292.635 369.476 292.635C369.476 292.635 362 292.851 358.042 304.668C354.087 316.485 365.207 335.215 353.565 348.008C337.508 365.654 328.523 355.936 320.899 365.389C309.964 378.944 316.359 392.255 316.359 392.255Z" fill="#12115A"/>
<path d="M266.512 405.669C263.232 378.239 261.878 350.59 274.081 334.157C282.594 322.689 290.553 319.793 297.574 317.238C301.701 315.735 305.602 314.317 309.074 311.252C313.23 307.585 314.281 302.81 315.497 297.282C316.934 290.756 318.561 283.36 325.842 276.36C331.184 271.226 337.94 269.612 345.379 271.696C350.909 273.245 354.82 276.259 354.985 276.385L353.655 278.094C353.619 278.066 349.868 275.185 344.734 273.762C338.005 271.898 332.154 273.296 327.345 277.92C320.538 284.464 319.052 291.216 317.614 297.746C316.37 303.4 315.196 308.738 310.508 312.873C306.727 316.21 302.641 317.696 298.315 319.272C291.58 321.723 283.946 324.502 275.821 335.446C264.071 351.272 265.436 378.425 268.664 405.411L266.512 405.669Z" fill="#12115A"/>
<path d="M542.675 326.662C540.843 315.807 536.914 313.641 531.478 310.646C527.49 308.45 522.971 305.959 518.378 299.584C514.053 293.586 512.882 288.721 511.849 284.428C510.321 278.079 509.112 273.063 497.639 267.066C490.331 263.25 482.825 264.724 474.879 266.287C467.253 267.786 458.61 269.486 449.06 266.619C441.895 264.468 437.661 260.02 433.566 255.717C426.371 248.155 418.93 240.335 394.602 243.229C381.893 244.74 373.004 252.941 367.782 259.556C362.071 266.793 359.37 273.77 359.343 273.841L357.321 273.069C357.433 272.775 360.144 265.758 366.044 258.267C373.899 248.291 383.686 242.349 394.348 241.08C419.751 238.061 427.572 246.277 435.136 254.225C439.216 258.511 443.068 262.56 449.682 264.545C458.721 267.257 466.722 265.683 474.463 264.161C482.792 262.522 490.663 260.975 498.643 265.144C510.992 271.598 512.365 277.307 513.958 283.92C514.945 288.019 516.063 292.664 520.139 298.315C524.447 304.296 528.739 306.66 532.527 308.746C538.043 311.787 542.808 314.411 544.814 326.299L542.675 326.662Z" fill="#12115A"/>
<path d="M420.662 324.958C420.662 319.465 425.005 315.013 430.365 315.013C435.724 315.013 440.071 319.465 440.071 324.958C440.071 330.451 435.724 334.903 430.365 334.903C425.005 334.903 420.662 330.449 420.662 324.958Z" fill="#EBB1B1"/>
<path d="M409.809 317.328C408.6 314.642 409.07 311.829 410.854 311.044C412.642 310.259 415.073 311.798 416.282 314.484C417.491 317.169 417.025 319.983 415.237 320.768C413.448 321.553 411.018 320.013 409.809 317.328Z" fill="#12115A"/>
<path d="M371.088 335.022C369.856 332.392 370.276 329.609 372.028 328.809C373.779 328.006 376.197 329.49 377.429 332.12C378.661 334.751 378.241 337.533 376.491 338.334C374.74 339.136 372.322 337.654 371.088 335.022Z" fill="#12115A"/>
<path d="M392.352 343.076C392.117 343.076 391.873 343.057 391.624 343.013C390.457 342.805 389.46 342.113 388.664 340.956C386.634 338.011 388.509 335.342 389.787 334.343L394.85 330.405L388.765 320.886C388.524 320.507 388.633 320.005 389.012 319.764C389.39 319.524 389.892 319.633 390.133 320.011L396.615 330.153C396.841 330.506 396.76 330.974 396.43 331.232L390.784 335.623C390.536 335.822 388.362 337.659 389.999 340.033C390.54 340.816 391.177 341.281 391.896 341.412C393.124 341.64 394.268 340.858 394.279 340.851L404.047 333.396C404.404 333.123 404.914 333.194 405.185 333.549C405.457 333.906 405.388 334.416 405.033 334.687L395.236 342.161C395.162 342.218 393.926 343.076 392.352 343.076Z" fill="#12115A"/>
<path d="M410.627 354.829C410.314 354.829 410.016 354.645 409.882 354.34C409.702 353.929 409.891 353.45 410.302 353.27C410.352 353.247 415.363 351.026 417.732 346.973C420.079 342.956 419.504 340.295 419.497 340.269C419.395 339.831 419.669 339.396 420.106 339.295C420.545 339.193 420.979 339.466 421.08 339.904C421.111 340.038 421.804 343.225 419.134 347.792C416.492 352.311 411.175 354.661 410.95 354.758C410.844 354.808 410.734 354.829 410.627 354.829Z" fill="#12115A"/>
<path d="M264.676 700.076C248.557 700.076 233.035 696.657 223.598 689.38C223.124 689.016 223.036 688.336 223.401 687.862C223.766 687.388 224.446 687.3 224.919 687.665C234.874 695.343 253.541 699.139 273.632 697.57C293.735 696 310.999 689.377 318.689 680.283C341.592 653.193 355.976 618.716 356.119 618.37L373.43 574.992C368.803 574.268 353.071 571.346 332.76 562.596C318.427 556.416 299.352 541.827 295.118 538.523L236.855 612.079C236.484 612.549 235.802 612.627 235.335 612.255C234.867 611.884 234.786 611.202 235.159 610.734L294.092 536.332C294.271 536.107 294.531 535.961 294.818 535.929C295.104 535.898 295.391 535.979 295.616 536.158C295.836 536.334 317.753 553.766 333.619 560.608C357.492 570.893 374.9 573.021 375.074 573.04C375.408 573.08 375.706 573.271 375.878 573.562C376.05 573.85 376.079 574.203 375.955 574.517L358.128 619.184C357.98 619.545 343.473 654.324 320.345 681.679C310.296 693.559 286.92 700.074 264.676 700.076Z" fill="#12115A"/>
<path d="M309.859 603.063L269.187 607.434C264.687 607.453 261.051 611.112 261.07 615.612C261.089 620.112 278.653 622.4 283.155 622.381L297.408 622.679L297.169 623.405C296.107 623.103 294.978 623.004 293.815 623.168L236.36 632.875C231.902 633.497 221.16 637.023 221.785 641.481C222.41 645.939 228.751 647.857 233.209 647.234L256.283 645.19L224.136 650.84C219.678 651.463 214.38 655.264 215.005 659.722C215.629 664.176 220.67 665.727 225.128 665.104C225.128 665.104 237.663 664.65 248.945 664.038C251.117 663.92 251.189 664.432 253.357 664.245C255.888 664.027 286.36 659.871 286.146 659.924C281.402 661.177 238.543 665.261 238.543 665.261C234.045 665.429 229.11 667.755 229.28 672.255C229.45 676.751 237.52 678.894 242.018 678.726L255.842 678.474C250.372 679.062 245.169 680.319 245.23 683.081C245.351 688.666 259.366 691.199 263.28 691.057L304.666 688.662C304.666 688.662 334.498 682.714 346.604 681.973C358.709 681.232 479.815 693.754 479.815 693.754C479.815 693.754 494.858 668.118 487.225 636.909C481.041 612.564 466.36 606.754 466.36 606.754L360.271 619.123C360.271 619.123 338.41 607.132 334.916 607.147L309.859 603.063Z" fill="#FFDFD5"/>
<path d="M478.164 694.581C477.924 694.581 477.679 694.501 477.479 694.335C477.017 693.955 476.95 693.273 477.328 692.81C477.395 692.728 481.333 687.843 484.565 679.257C487.552 671.321 490.53 658.499 487.753 642.495C483.106 615.698 463.524 607.325 463.328 607.242C462.886 607.059 462.615 606.608 462.663 606.133C462.711 605.657 463.066 605.269 463.536 605.178C463.817 605.124 491.729 599.702 509.714 592.732C519.684 588.872 532.863 590.385 547.822 597.116C559.028 602.156 567.434 608.423 567.518 608.486C567.996 608.845 568.093 609.523 567.734 610.002C567.375 610.482 566.697 610.577 566.217 610.218C565.891 609.974 533.367 585.896 510.497 594.753C495.842 600.431 474.719 605.082 466.955 606.696C469.027 607.919 472.033 609.978 475.238 613.118C480.525 618.298 487.357 627.534 489.888 642.127C492.755 658.658 489.659 671.909 486.559 680.115C483.188 689.034 479.175 693.981 479.005 694.188C478.787 694.447 478.478 694.581 478.164 694.581Z" fill="#12115A"/>
<path d="M277.912 574.244C277.702 574.244 277.49 574.182 277.303 574.056C276.808 573.72 276.68 573.046 277.017 572.551L294.545 546.801C294.881 546.306 295.555 546.178 296.05 546.514C296.544 546.85 296.672 547.525 296.336 548.019L278.808 573.77C278.598 574.079 278.258 574.244 277.912 574.244Z" fill="#12115A"/>
<path d="M286.876 581.116C286.666 581.116 286.454 581.054 286.268 580.928C285.774 580.592 285.646 579.918 285.982 579.423L303.51 553.669C303.846 553.174 304.52 553.046 305.015 553.382C305.51 553.719 305.638 554.393 305.302 554.887L287.774 580.642C287.563 580.949 287.223 581.116 286.876 581.116Z" fill="#12115A"/>
<path d="M298.495 588.347C298.311 588.347 298.124 588.299 297.954 588.202C297.436 587.902 297.259 587.239 297.559 586.722L313.158 559.756C313.457 559.239 314.12 559.063 314.638 559.361C315.155 559.661 315.333 560.323 315.033 560.841L299.434 587.806C299.234 588.154 298.869 588.347 298.495 588.347Z" fill="#12115A"/>
<path d="M477.582 610.117C477.078 610.117 476.627 609.764 476.522 609.252C476.402 608.666 476.78 608.095 477.364 607.974L507.882 601.713C508.467 601.591 509.04 601.971 509.16 602.556C509.28 603.142 508.902 603.713 508.318 603.833L477.8 610.094C477.729 610.111 477.654 610.117 477.582 610.117Z" fill="#12115A"/>
<path d="M484.099 618.426C483.596 618.426 483.144 618.073 483.039 617.561C482.918 616.974 483.297 616.403 483.881 616.283L514.395 610.018C514.982 609.896 515.553 610.276 515.673 610.86C515.793 611.447 515.415 612.018 514.831 612.138L484.316 618.403C484.246 618.42 484.171 618.426 484.099 618.426Z" fill="#12115A"/>
<path d="M490.776 628.033C490.272 628.033 489.821 627.679 489.716 627.168C489.596 626.581 489.974 626.01 490.558 625.89L521.076 619.629C521.661 619.507 522.234 619.887 522.354 620.471C522.474 621.058 522.096 621.629 521.512 621.749L490.994 628.01C490.923 628.027 490.849 628.033 490.776 628.033Z" fill="#12115A"/>
<path d="M494.749 639.921C494.247 639.921 493.794 639.568 493.689 639.056C493.568 638.469 493.947 637.898 494.531 637.778L525.049 631.513C525.637 631.391 526.207 631.771 526.327 632.355C526.447 632.942 526.069 633.513 525.485 633.633L494.967 639.898C494.896 639.915 494.821 639.921 494.749 639.921Z" fill="#12115A"/>
<path d="M496.896 651.148C496.365 651.148 495.902 650.758 495.824 650.218C495.74 649.626 496.151 649.077 496.743 648.993L527.585 644.604C528.181 644.524 528.726 644.931 528.81 645.523C528.894 646.115 528.483 646.663 527.891 646.747L497.048 651.136C496.999 651.144 496.947 651.148 496.896 651.148Z" fill="#12115A"/>
<path d="M496.483 664.105C495.933 664.105 495.461 663.687 495.406 663.129C495.347 662.533 495.782 662.004 496.376 661.945L527.376 658.874C527.974 658.819 528.501 659.25 528.56 659.844C528.619 660.44 528.184 660.969 527.59 661.028L496.59 664.1C496.556 664.103 496.52 664.105 496.483 664.105Z" fill="#12115A"/>
<path d="M494.856 676.646C494.306 676.646 493.836 676.23 493.781 675.67C493.721 675.074 494.155 674.545 494.751 674.486L525.746 671.392C526.346 671.333 526.871 671.766 526.931 672.362C526.99 672.958 526.556 673.487 525.96 673.546L494.965 676.641C494.928 676.644 494.892 676.646 494.856 676.646Z" fill="#12115A"/>
<path d="M492.224 686.655C491.659 686.655 491.183 686.215 491.145 685.644C491.105 685.048 491.555 684.531 492.153 684.491L523.237 682.413C523.834 682.365 524.35 682.825 524.39 683.421C524.43 684.017 523.98 684.535 523.382 684.575L492.298 686.653C492.274 686.655 492.249 686.655 492.224 686.655Z" fill="#12115A"/>
<path d="M310.887 594.86C310.72 594.86 310.551 594.822 310.394 594.74C309.861 594.467 309.653 593.813 309.924 593.282L324.152 565.568C324.425 565.035 325.078 564.827 325.609 565.1C326.142 565.373 326.35 566.027 326.079 566.558L311.851 594.272C311.66 594.646 311.28 594.86 310.887 594.86Z" fill="#12115A"/>
<path d="M322.257 600.559C322.1 600.559 321.942 600.525 321.791 600.454C321.25 600.196 321.023 599.551 321.281 599.01L334.706 570.899C334.964 570.358 335.61 570.131 336.15 570.389C336.691 570.647 336.918 571.292 336.66 571.833L323.235 599.944C323.049 600.332 322.662 600.559 322.257 600.559Z" fill="#12115A"/>
<path d="M335.982 606.324C335.841 606.324 335.7 606.297 335.56 606.238C335.01 606.005 334.752 605.371 334.985 604.819L347.118 576.127C347.351 575.577 347.987 575.317 348.537 575.552C349.087 575.785 349.345 576.419 349.112 576.971L336.981 605.663C336.805 606.076 336.404 606.324 335.982 606.324Z" fill="#12115A"/>
<path d="M350.33 610.209C350.208 610.209 350.084 610.188 349.963 610.144C349.4 609.942 349.11 609.321 349.312 608.758L359.882 579.45C360.084 578.889 360.705 578.597 361.269 578.799C361.832 579.002 362.122 579.622 361.92 580.186L351.35 609.493C351.19 609.936 350.773 610.209 350.33 610.209Z" fill="#12115A"/>
<path d="M425.815 394.316C425.626 394.316 425.435 394.249 425.28 394.115C424.942 393.819 424.908 393.307 425.204 392.969C425.284 392.878 433.26 383.742 436.492 378.801C440.041 373.38 448.561 355.705 448.813 353.243C448.854 352.838 448.842 352.296 448.55 352.025C448.191 351.69 447.505 351.782 447.499 351.782C447.058 351.857 446.638 351.559 446.563 351.117C446.489 350.674 446.787 350.256 447.228 350.181C447.379 350.157 448.718 349.96 449.66 350.838C450.284 351.421 450.542 352.286 450.429 353.407C450.114 356.498 440.927 374.994 437.852 379.691C434.559 384.728 426.757 393.661 426.426 394.039C426.266 394.222 426.04 394.316 425.815 394.316Z" fill="#12115A"/>
<path d="M434.983 405.854C434.844 405.854 434.702 405.818 434.574 405.743C434.187 405.516 434.057 405.019 434.284 404.632C434.443 404.36 450.145 377.51 452.246 371.216C454.362 364.869 459.349 345.473 459.399 345.278C459.511 344.843 459.953 344.583 460.388 344.694C460.822 344.805 461.083 345.248 460.972 345.683C460.923 345.878 455.921 365.33 453.787 371.732C451.635 378.186 436.337 404.345 435.688 405.455C435.533 405.711 435.262 405.854 434.983 405.854Z" fill="#12115A"/>
<path d="M441.041 411.55C440.883 411.55 440.722 411.504 440.581 411.407C440.213 411.153 440.119 410.646 440.373 410.278C440.522 410.062 455.223 388.66 457.07 384.113C458.927 379.534 461.914 367.923 461.944 367.807C462.057 367.371 462.502 367.11 462.934 367.222C463.369 367.333 463.631 367.776 463.518 368.21C463.394 368.691 460.474 380.044 458.575 384.724C456.661 389.434 442.321 410.312 441.712 411.198C441.553 411.428 441.299 411.55 441.041 411.55Z" fill="#12115A"/>
<path d="M231.874 649.117C231.476 649.117 231.129 648.827 231.071 648.422C231.006 647.979 231.314 647.567 231.759 647.502C232.855 647.341 258.701 643.592 264.93 643.258C271.097 642.927 290.192 640.733 290.385 640.71C290.828 640.66 291.233 640.977 291.284 641.424C291.336 641.869 291.017 642.272 290.57 642.324C290.377 642.347 271.233 644.547 265.018 644.879C258.864 645.21 232.261 649.07 231.994 649.108C231.952 649.114 231.912 649.117 231.874 649.117Z" fill="#12115A"/>
<path d="M237.827 665.559C237.405 665.559 237.048 665.232 237.017 664.802C236.987 664.355 237.323 663.968 237.772 663.935C237.921 663.926 252.842 662.883 264.877 661.572C274.541 660.524 288.587 658.472 288.729 658.451C289.176 658.385 289.584 658.694 289.649 659.137C289.714 659.58 289.407 659.993 288.964 660.058C288.822 660.079 274.747 662.136 265.052 663.186C252.985 664.498 238.035 665.543 237.884 665.555C237.865 665.557 237.846 665.559 237.827 665.559Z" fill="#12115A"/>
<path d="M260.77 679.612C256.442 679.612 253.292 679.376 253.241 679.372C252.794 679.337 252.46 678.948 252.494 678.499C252.529 678.05 252.918 677.722 253.367 677.752C253.449 677.76 261.63 678.371 269.709 677.597C276.887 676.908 289.292 676.23 289.416 676.224C289.856 676.197 290.247 676.543 290.272 676.992C290.297 677.439 289.953 677.823 289.504 677.848C289.38 677.855 277.009 678.531 269.864 679.217C266.685 679.519 263.494 679.612 260.77 679.612Z" fill="#12115A"/>
<path d="M288.217 624.46C288.201 624.46 288.192 624.46 288.19 624.46C287.741 624.458 287.378 624.093 287.38 623.644C287.382 623.197 287.745 622.834 288.192 622.834C288.196 622.834 288.2 622.834 288.221 622.834C288.688 622.834 295.375 622.817 300.998 621.927C301.443 621.858 301.858 622.158 301.927 622.603C301.997 623.046 301.696 623.463 301.252 623.531C295.509 624.44 288.708 624.46 288.217 624.46Z" fill="#12115A"/>
<path d="M368.53 368.462L376.982 366.945C376.982 366.945 375.918 357.235 372.379 357.136C365.715 356.948 368.53 368.462 368.53 368.462Z" fill="white"/>
<path d="M441.626 359.281L446.351 361.368C446.351 361.368 451.474 353.337 449.113 351.379C445.946 348.749 441.626 359.281 441.626 359.281Z" fill="white"/>
<path d="M453.609 348.796L458.724 349.507C458.724 349.507 461.444 340.377 458.636 339.143C454.87 337.484 453.609 348.796 453.609 348.796Z" fill="white"/>
<path d="M461.261 356.271L465.31 356.937C465.31 356.937 467.465 348.367 465.241 347.208C462.258 345.651 461.261 356.271 461.261 356.271Z" fill="white"/>
<path d="M462.686 376.984L465.94 377.554C465.94 377.554 467.675 370.25 465.887 369.262C463.488 367.935 462.686 376.984 462.686 376.984Z" fill="white"/>
<path d="M333.795 474.288C333.652 474.288 333.509 474.249 333.377 474.171C332.993 473.94 332.869 473.441 333.1 473.056L367.05 416.598L368.198 388.236C367.9 386.578 364.496 367.549 364.34 364.077C364.227 361.599 363.964 355.797 368.036 353.965C369.915 353.119 371.924 353.075 373.691 353.839C375.16 354.475 377.169 355.993 378.413 359.619C380.252 364.982 383.195 374.799 383.451 375.655C383.69 376.15 385.804 380.413 389.391 382.995C392.816 385.461 397.698 386.5 398.726 386.697C400.338 386.156 411.44 382.371 415.188 379.486C418.078 377.263 422.463 372.186 426.331 367.706C428.008 365.763 429.591 363.93 431.016 362.363C432.166 361.099 433.354 359.682 434.502 358.31C438.555 353.474 442.052 349.297 444.974 349.881C445.414 349.969 445.698 350.397 445.612 350.836C445.526 351.276 445.098 351.562 444.657 351.474C442.686 351.081 439 355.476 435.749 359.353C434.59 360.736 433.392 362.165 432.219 363.454C430.81 365.005 429.232 366.831 427.563 368.766C423.452 373.525 419.201 378.447 416.181 380.772C411.937 384.038 399.564 388.131 399.039 388.303C398.915 388.343 398.781 388.355 398.651 388.332C398.405 388.29 392.575 387.283 388.444 384.311C384.294 381.324 382.047 376.486 381.954 376.282C381.939 376.247 381.925 376.213 381.914 376.176C381.883 376.071 378.781 365.694 376.877 360.142C376.046 357.716 374.721 356.051 373.046 355.325C371.703 354.744 370.16 354.784 368.702 355.441C366 356.658 365.801 360.45 365.961 363.998C366.118 367.446 369.774 387.826 369.812 388.032C369.822 388.089 369.827 388.15 369.823 388.208L368.664 416.865C368.658 417.001 368.618 417.135 368.549 417.251L334.492 473.886C334.34 474.146 334.07 474.288 333.795 474.288Z" fill="#12115A"/>
<path d="M461.261 372.994C461.19 372.994 461.118 372.985 461.047 372.964C460.642 372.845 460.409 372.421 460.527 372.016L464.905 356.994C465.024 356.589 465.449 356.356 465.853 356.475C466.257 356.593 466.49 357.017 466.372 357.422L461.994 372.444C461.897 372.777 461.591 372.994 461.261 372.994Z" fill="#12115A"/>
<path d="M375.173 572.616C375.051 572.616 374.927 572.595 374.805 572.551C374.241 572.349 373.951 571.728 374.153 571.165C375.702 566.877 412.158 466.019 418.587 453.619C422.429 446.209 426.594 440.754 430.624 435.48C433.392 431.857 436.007 428.434 438.266 424.666C440.772 420.492 443.498 416.926 446.382 413.152C449.938 408.501 453.613 403.69 457.273 397.225C463.738 385.799 464.798 378.018 464.808 377.941C464.884 377.349 465.423 376.929 466.018 377.006C466.611 377.082 467.031 377.622 466.956 378.215C466.914 378.545 465.856 386.456 459.158 398.293C455.426 404.89 451.703 409.76 448.103 414.468C445.257 418.193 442.568 421.711 440.123 425.781C437.8 429.653 435.151 433.123 432.345 436.796C428.372 441.997 424.266 447.374 420.511 454.616C414.147 466.892 376.569 570.853 376.191 571.902C376.033 572.343 375.616 572.616 375.173 572.616Z" fill="#12115A"/>
<path d="M445.079 321.031C444.917 321.031 444.755 320.979 444.615 320.874C444.281 320.618 444.216 320.139 444.472 319.803L450.916 311.374C451.172 311.04 451.652 310.975 451.988 311.231C452.322 311.487 452.387 311.966 452.131 312.302L445.687 320.731C445.536 320.928 445.309 321.031 445.079 321.031Z" fill="#12115A"/>
<path d="M453.51 317.349C453.489 317.349 453.47 317.349 453.449 317.347L448.063 316.921C447.643 316.888 447.328 316.52 447.362 316.1C447.394 315.679 447.761 315.364 448.183 315.399L453.569 315.824C453.99 315.857 454.305 316.226 454.27 316.646C454.24 317.045 453.906 317.349 453.51 317.349Z" fill="#12115A"/>
<path d="M292.9 373.659C292.873 373.659 292.847 373.657 292.82 373.655C292.4 373.611 292.096 373.235 292.14 372.815C292.302 371.279 292.405 369.625 292.516 367.876C292.954 360.954 293.45 353.108 297.776 347.895C302.061 342.734 306.973 341.655 312.172 340.513C315.671 339.743 319.291 338.949 322.876 336.806C324.409 335.889 325.775 334.074 326.978 332.474C327.406 331.905 327.809 331.368 328.203 330.896C332.277 325.989 333.255 319.308 334.292 312.234C335.268 305.571 336.276 298.68 340.119 293.344C343.993 287.963 349.608 286.032 355.04 284.166C356.148 283.786 357.294 283.391 358.406 282.974C358.799 282.825 359.24 283.026 359.389 283.421C359.538 283.817 359.338 284.256 358.942 284.405C357.811 284.829 356.656 285.226 355.537 285.61C350.091 287.482 344.948 289.251 341.359 294.236C337.734 299.27 336.752 305.973 335.803 312.455C334.781 319.427 333.726 326.633 329.377 331.872C329.007 332.317 328.615 332.841 328.199 333.393C326.91 335.106 325.448 337.048 323.659 338.118C319.86 340.389 316.118 341.21 312.499 342.005C307.563 343.09 302.901 344.113 298.951 348.871C294.942 353.702 294.463 361.282 294.04 367.971C293.93 369.738 293.823 371.405 293.658 372.973C293.618 373.367 293.286 373.659 292.9 373.659Z" fill="#EAF1F1"/>
<path d="M526.923 332.12C526.906 332.12 526.889 332.12 526.871 332.118C526.449 332.09 526.132 331.727 526.161 331.305C526.499 326.264 519.315 323.042 512.369 319.925C507.59 317.782 503.079 315.755 500.748 313.093C498.722 310.774 497.049 307.613 495.278 304.267C492.283 298.608 489.187 292.755 484.108 290.471C476.382 286.997 471.384 287.715 465.597 288.546C459.301 289.451 452.166 290.477 440.047 286.334C433.257 284.013 427.735 279.951 422.394 276.02C411.698 268.149 401.594 260.713 382.061 266.548C372.308 269.461 363.192 282.346 362.98 282.646C362.758 282.972 362.319 283.077 361.97 282.879C361.603 282.669 361.477 282.202 361.685 281.836C361.759 281.706 371.237 268.187 381.622 265.085C401.885 259.032 412.77 267.043 423.298 274.79C428.545 278.652 433.971 282.644 440.537 284.888C452.309 288.912 459.252 287.913 465.377 287.033C471.149 286.202 476.6 285.419 484.733 289.077C490.291 291.577 493.511 297.664 496.627 303.551C498.355 306.817 499.988 309.901 501.898 312.086C504.007 314.499 508.371 316.456 512.993 318.531C520.418 321.862 528.094 325.305 527.683 331.408C527.658 331.811 527.322 332.12 526.923 332.12Z" fill="#EAF1F1"/>
<path d="M479.528 346.453C479.52 346.453 479.513 346.453 479.505 346.453C479.083 346.442 478.751 346.09 478.764 345.668C478.774 345.299 478.797 344.816 478.823 344.232C479.009 340.207 479.398 331.834 477.771 323.65C475.786 313.664 471.476 307.418 464.955 305.086C460.856 303.619 456.369 303.358 451.617 303.079C445.769 302.737 439.72 302.382 433.249 299.878C429.433 298.401 424.377 294.15 420.685 291.044C420.1 290.553 419.56 290.099 419.08 289.701C413.217 284.867 408.27 282.999 402.003 283.257C395.522 283.522 389.644 286.004 384.456 288.19C378.636 290.645 373.611 292.767 369.266 291.18C368.868 291.034 368.666 290.597 368.811 290.2C368.956 289.803 369.394 289.598 369.791 289.745C373.573 291.126 378.342 289.113 383.864 286.785C389.17 284.546 395.184 282.008 401.942 281.731C408.625 281.456 413.87 283.425 420.055 288.523C420.54 288.922 421.082 289.38 421.67 289.875C425.076 292.74 430.223 297.068 433.803 298.453C440.05 300.871 445.977 301.219 451.709 301.555C456.572 301.839 461.165 302.109 465.471 303.648C472.532 306.173 477.173 312.803 479.27 323.354C480.934 331.721 480.539 340.219 480.349 344.304C480.323 344.877 480.302 345.353 480.29 345.714C480.281 346.126 479.941 346.453 479.528 346.453Z" fill="#EAF1F1"/>
<path d="M319.993 366.43C319.911 366.43 319.827 366.417 319.745 366.388C319.346 366.25 319.134 365.817 319.271 365.418C321.235 359.695 325.252 358.093 329.904 356.236C335.193 354.126 341.775 351.499 348.196 341.758C350.208 338.708 349.53 330.934 348.985 324.689C348.745 321.921 348.536 319.532 348.571 317.792C348.716 310.751 349.621 305.237 360.021 298.367C360.373 298.134 360.848 298.231 361.079 298.583C361.312 298.934 361.215 299.408 360.864 299.641C351.063 306.116 350.238 311.044 350.099 317.822C350.064 319.478 350.28 321.944 350.508 324.555C351.073 331.038 351.776 339.104 349.472 342.599C342.787 352.739 335.959 355.465 330.472 357.655C325.817 359.514 322.453 360.855 320.717 365.914C320.608 366.231 320.312 366.43 319.993 366.43Z" fill="#EAF1F1"/>
<path d="M314.304 392.482C313.966 392.482 313.658 392.257 313.566 391.917C313.438 391.441 310.547 380.079 319.147 364.741C319.354 364.373 319.82 364.243 320.188 364.449C320.557 364.655 320.687 365.121 320.481 365.49C312.205 380.25 315.014 391.414 315.043 391.525C315.15 391.932 314.907 392.35 314.5 392.459C314.435 392.474 314.369 392.482 314.304 392.482Z" fill="#EAF1F1"/>
<path d="M404.797 385.738L404.499 385.581L404.35 385.377L404.152 385.272L404.797 385.738Z" fill="#FFDFD5"/>
<path d="M443.899 367.984C443.865 368.051 443.83 368.118 443.796 368.183L443.899 367.984Z" fill="#FFDFD5"/>
<path d="M476.117 693.275C476.094 693.275 476.069 693.273 476.044 693.271C474.795 693.162 351.06 682.31 343.003 683.698C334.947 685.081 318.215 687.952 307.546 689.537C296.947 691.113 264.865 691.592 263.505 691.613C263.501 691.613 263.498 691.613 263.494 691.613C263.051 691.613 262.688 691.258 262.682 690.813C262.676 690.364 263.033 689.995 263.482 689.99C263.815 689.984 296.816 689.491 307.307 687.933C317.959 686.349 334.677 683.48 342.711 682.101C350.993 680.678 471.078 691.206 476.185 691.655C476.632 691.695 476.963 692.089 476.923 692.536C476.888 692.958 476.535 693.275 476.117 693.275Z" fill="#12115A"/>
<path d="M407.624 308.013C409.232 305.765 412.135 305.23 414.606 306.184C417.988 307.49 419.584 302.094 416.229 300.798C411.313 298.9 405.839 300.867 402.837 305.061C400.725 308.011 405.528 310.942 407.624 308.013Z" fill="#12115A"/>
<path d="M367.363 313.068C362.644 313.847 359.095 316.984 357.704 321.554C357.263 323.008 358.531 324.586 359.916 324.859C361.532 325.178 362.777 324.106 363.22 322.647C363.824 320.661 365.734 319.012 367.774 318.674C369.271 318.426 370.49 317.278 370.371 315.664C370.27 314.256 368.87 312.82 367.363 313.068Z" fill="#12115A"/>
<path d="M509.496 595.731C509.028 595.731 508.596 595.425 508.457 594.954L495.225 550.092C495.055 549.519 495.383 548.917 495.956 548.747C496.529 548.577 497.131 548.906 497.301 549.479L510.533 594.341C510.703 594.914 510.375 595.515 509.802 595.685C509.7 595.718 509.597 595.731 509.496 595.731Z" fill="#12115A"/>
<path d="M667.584 165.598L679.3 225.102C679.3 225.102 651.692 239.322 631.412 249.044C608.385 260.08 585.293 263.369 572.81 257.06C560.96 251.07 562.041 237.02 562.041 237.02L555.673 226.842C555.673 226.842 545.68 220.881 544.328 217.431C542.494 212.748 537.291 202.499 544.396 199.141C551.498 195.784 566.308 192.265 576.717 191.398C587.131 190.531 591.279 190.506 594.217 185.431C597.151 180.358 562.935 173.139 558.236 167.542C553.538 161.946 556.853 154.72 556.853 154.72C556.853 154.72 571.182 154.68 584.827 159.1C598.468 163.518 608.179 168.385 626.347 171.97C644.511 175.553 667.584 165.598 667.584 165.598Z" fill="#97D3D3"/>
<path d="M543.988 211.788C543.988 211.788 514.692 208.959 517.809 198.719C520.926 188.482 522.844 190.499 530.419 190.241C537.994 189.983 554.034 193.1 554.034 193.1L581.836 193.217C581.836 193.217 561.411 199.523 556.624 203.183C551.838 206.845 543.988 211.788 543.988 211.788Z" fill="#97D3D3"/>
<path d="M584.766 242.237C584.749 242.237 584.73 242.237 584.712 242.235L576.064 241.639C575.657 241.61 575.344 241.268 575.354 240.861C575.355 240.745 575.567 229.073 573.451 225.22C572.437 223.372 571.457 222.386 570.619 222.369C569.801 222.371 568.835 223.247 567.811 224.955C565.38 229.014 562.946 236.627 562.921 236.703C562.793 237.106 562.362 237.328 561.963 237.2C561.56 237.072 561.338 236.642 561.466 236.241C561.567 235.922 563.978 228.38 566.501 224.17C567.843 221.93 569.182 220.841 570.596 220.841C570.613 220.841 570.63 220.841 570.647 220.841C572.105 220.868 573.459 222.059 574.79 224.483C576.801 228.141 576.904 237.462 576.891 240.162L584.819 240.709C585.24 240.737 585.559 241.102 585.528 241.524C585.501 241.927 585.165 242.237 584.766 242.237Z" fill="#12115A"/>
<path d="M556.103 227.075C555.727 227.075 555.398 226.796 555.347 226.411C555.314 226.16 554.533 220.22 554.623 216.828C554.741 212.448 556.153 206.636 559.039 203.523C559.908 202.587 561.096 202.241 562.482 202.524C565.429 203.128 568.52 206.449 569.45 209.051C571.058 213.562 572.517 220.686 572.926 222.759L580.459 223.383C580.879 223.418 581.193 223.788 581.158 224.208C581.124 224.628 580.753 224.944 580.333 224.907L572.223 224.235C571.881 224.206 571.599 223.954 571.536 223.616C571.519 223.526 569.828 214.666 568.01 209.566C567.133 207.112 564.352 204.468 562.175 204.023C561.317 203.848 560.658 204.025 560.16 204.564C557.929 206.971 556.281 212.03 556.151 216.872C556.065 220.144 556.855 226.155 556.863 226.214C556.918 226.632 556.624 227.016 556.206 227.071C556.17 227.073 556.137 227.075 556.103 227.075Z" fill="#12115A"/>
<path d="M574.529 227.348C574.51 227.348 574.49 227.348 574.471 227.346L566.262 226.737C565.842 226.707 565.525 226.34 565.557 225.918C565.588 225.498 565.96 225.182 566.375 225.213L574.584 225.822C575.004 225.853 575.321 226.22 575.289 226.642C575.26 227.043 574.926 227.348 574.529 227.348Z" fill="#12115A"/>
<path d="M542.341 212.191C542.328 212.191 542.313 212.191 542.299 212.189C541.877 212.166 541.554 211.807 541.577 211.385C541.604 210.89 542.299 199.25 547.878 197.868C551.083 197.075 553.61 197.908 555.604 200.416C557.862 203.25 558.156 207.297 558.168 207.467C558.196 207.887 557.877 208.252 557.457 208.281C557.027 208.31 556.672 207.991 556.643 207.57C556.641 207.534 556.364 203.823 554.409 201.369C552.323 198.746 550.019 198.914 548.245 199.354C544.515 200.278 543.268 208.413 543.101 211.469C543.082 211.876 542.744 212.191 542.341 212.191Z" fill="#12115A"/>
<path d="M524.762 235.254L515.523 229.149L547.855 176.955L557.094 183.059L524.762 235.254ZM517.009 228.825L524.424 233.724L555.606 183.388L548.192 178.488L517.009 228.825Z" fill="#12115A"/>
<path d="M516.633 241.601L513.139 239.236L518.972 230.141L522.466 232.505L516.633 241.601ZM514.633 238.929L516.317 240.069L520.97 232.813L519.286 231.672L514.633 238.929Z" fill="#12115A"/>
<path d="M511 247.161L511.527 245.428L516.392 237.53L516.9 237.687L511 247.161Z" fill="#12115A"/>
<path d="M560.721 186.862L544.095 175.807L546.043 172.711L562.667 183.77L560.721 186.862ZM545.584 175.488L560.393 185.334L561.176 184.091L546.369 174.243L545.584 175.488Z" fill="#12115A"/>
<path d="M555.49 180.307L551.532 177.675L556.886 169.193L560.849 171.853L555.49 180.307ZM553.026 177.356L555.167 178.781L559.359 172.168L557.212 170.726L553.026 177.356Z" fill="#12115A"/>
<path d="M563.489 174.911L553.14 168.041L555.022 165.046L565.37 171.916L563.489 174.911ZM554.632 167.72L563.158 173.381L563.876 172.237L555.35 166.576L554.632 167.72Z" fill="#12115A"/>
<path d="M523.827 226.357L523.244 227.281L527.442 229.928L528.025 229.004L523.827 226.357Z" fill="#12115A"/>
<path d="M528.401 219.009L527.818 219.934L532.016 222.579L532.598 221.655L528.401 219.009Z" fill="#12115A"/>
<path d="M528.135 224.17L527.723 224.823L529.822 226.146L530.233 225.493L528.135 224.17Z" fill="#12115A"/>
<path d="M532.994 211.723L532.411 212.647L536.609 215.293L537.192 214.369L532.994 211.723Z" fill="#12115A"/>
<path d="M532.727 216.848L532.315 217.501L534.415 218.824L534.826 218.171L532.727 216.848Z" fill="#12115A"/>
<path d="M537.601 204.454L537.019 205.379L541.217 208.024L541.799 207.1L537.601 204.454Z" fill="#12115A"/>
<path d="M537.312 209.549L536.901 210.202L539 211.525L539.411 210.872L537.312 209.549Z" fill="#12115A"/>
<path d="M679.701 224.551L668.16 165.935L745.407 140.639L765.641 214.324L679.701 224.551Z" stroke="#12115A"/>
</svg>
