<svg width="764" height="655" viewBox="0 0 764 655" fill="none" xmlns="http://www.w3.org/2000/svg">
<path d="M175.575 626.998C175.575 626.998 -9.98907 450.521 85.1269 304C132.792 230.577 190.579 254.522 260.332 189.85C340.828 115.217 408.18 52.7368 498.929 79.1764C581.727 103.299 575.667 218.308 606.15 259.963C636.634 301.618 696.428 325.383 714.015 383.716C731.601 442.049 714.612 550.328 606.374 627H175.575V626.998Z" fill="#EAF1F1"/>
<path d="M625 362C658.137 362 685 335.137 685 302C685 268.863 658.137 242 625 242C591.863 242 565 268.863 565 302C565 335.137 591.863 362 625 362Z" fill="#73E4BC"/>
<path d="M54.9163 300.545C54.1523 300.163 53.3883 299.781 52.6243 299.399C52.6033 299.387 52.5823 299.421 52.6052 299.431C53.3692 299.813 54.1332 300.195 54.8972 300.577C54.9182 300.589 54.9373 300.556 54.9163 300.545Z" fill="#12115A"/>
<path d="M60.1745 605.969C77.4574 605.969 91.468 591.958 91.468 574.675C91.468 557.393 77.4574 543.382 60.1745 543.382C42.8916 543.382 28.8811 557.393 28.8811 574.675C28.8811 591.958 42.8916 605.969 60.1745 605.969Z" fill="#73E4BC"/>
<path d="M264.556 136.027C281.839 136.027 295.849 122.016 295.849 104.733C295.849 87.4505 281.839 73.4399 264.556 73.4399C247.273 73.4399 233.262 87.4505 233.262 104.733C233.262 122.016 247.273 136.027 264.556 136.027Z" fill="#73E4BC"/>
<path d="M662 604C678.016 604 691 591.016 691 575C691 558.984 678.016 546 662 546C645.984 546 633 558.984 633 575C633 591.016 645.984 604 662 604Z" fill="white"/>
<path d="M172.5 336C187.688 336 200 323.688 200 308.5C200 293.312 187.688 281 172.5 281C157.312 281 145 293.312 145 308.5C145 323.688 157.312 336 172.5 336Z" fill="white"/>
<path d="M216.583 590.651L214.441 581.727C214.441 581.727 203.845 583.427 203.936 587.201C204.106 594.318 216.583 590.651 216.583 590.651Z" fill="white"/>
<path d="M223.613 573.105L221.501 565.439C221.501 565.439 211.044 566.898 211.133 570.145C211.301 576.261 223.613 573.105 223.613 573.105Z" fill="white"/>
<path d="M229.624 605.461L229.567 596.484C229.567 596.484 219.761 595.754 219.058 599.372C217.732 606.19 229.624 605.461 229.624 605.461Z" fill="white"/>
<path d="M245.007 617.521L245.844 611.21C245.844 611.21 236.611 609.38 235.585 611.825C233.652 616.436 245.007 617.521 245.007 617.521Z" fill="white"/>
<path d="M247.641 542.561L258.379 542.034L258.364 536.731C258.364 536.731 253.868 537.018 251.031 538.149C248.195 539.279 247.641 542.561 247.641 542.561Z" fill="white"/>
<path d="M251.593 654.521C247.37 651.003 243.162 647.458 239.086 643.768L251.593 654.521Z" fill="#FFDFD5"/>
<path d="M462.539 58.0013L427.042 61.4928L391.546 64.9843L406.27 32.499L420.995 0.0118408L441.766 29.0075L462.539 58.0013Z" fill="#2F2E6E"/>
<path d="M32.5502 485.211L32.4662 459.229L32.384 433.248L54.9259 446.167L77.4677 459.086L55.008 472.149L32.5502 485.211Z" fill="#2F2E6E"/>
<path d="M742.458 313.868L722.229 290.037L702 266.206L732.753 260.602L763.504 255L752.98 284.433L742.458 313.868Z" fill="#2F2E6E"/>
<path d="M131.108 39.0001L106 47.6997L114.7 72.8075L139.807 64.1079L131.108 39.0001Z" fill="#73E4BC"/>
<path d="M111.108 346L86 354.7L94.6996 379.807L119.807 371.108L111.108 346Z" fill="#73E4BC"/>
<path d="M99.8083 205.069L77.541 190.569L63.0407 212.836L85.308 227.336L99.8083 205.069Z" fill="white"/>
<path d="M471.075 133.652C473.878 121.778 466.526 109.88 454.652 107.077C442.779 104.273 430.88 111.625 428.077 123.499C425.273 135.372 432.625 147.271 444.499 150.074C456.373 152.878 468.271 145.525 471.075 133.652Z" fill="white"/>
<path d="M504.421 456.668C500.305 462.459 501.669 470.519 507.46 474.635C507.691 474.8 507.903 474.941 508.104 475.063L509.015 475.623L510.295 473.822L508.423 472.492C503.976 469.037 502.999 462.635 506.291 457.999C509.584 453.364 515.952 452.183 520.679 455.247L520.691 455.232L522.563 456.561L523.831 454.777L523.006 454.097C522.824 453.948 522.622 453.794 522.391 453.629C516.598 449.513 508.536 450.877 504.421 456.668Z" fill="#FFDFD5"/>
<path d="M590.393 591.258C590.217 590.758 590.007 590.265 589.766 589.78C586.595 583.423 578.841 580.83 572.484 584C572.228 584.13 572.007 584.248 571.804 584.367L570.88 584.909L571.869 586.888L573.921 585.86C579.066 583.565 585.174 585.715 587.711 590.803C588.207 591.797 588.532 592.828 588.696 593.871L590.393 591.258Z" fill="#FFDFD5"/>
<path d="M537.655 567.828C541.106 566.398 542.746 562.44 541.316 558.988C539.886 555.536 535.928 553.897 532.476 555.327C529.024 556.757 527.385 560.714 528.815 564.166C530.245 567.618 534.203 569.258 537.655 567.828Z" fill="#EAF1F1"/>
<path d="M200.594 518.607C204.33 518.607 207.359 515.579 207.359 511.842C207.359 508.106 204.33 505.077 200.594 505.077C196.857 505.077 193.829 508.106 193.829 511.842C193.829 515.579 196.857 518.607 200.594 518.607Z" fill="#EAF1F1"/>
<path d="M690.66 485.998L706.539 472.613L722.417 459.229L726.069 479.672L729.721 500.117L710.191 493.057L690.66 485.998Z" fill="#2F2E6E"/>
<path d="M327.603 283.439C325.882 278.245 329.272 272.449 335.176 270.491C341.08 268.533 347.263 271.155 348.984 276.349C350.705 281.542 347.314 287.339 341.411 289.297C335.509 291.254 329.326 288.632 327.603 283.439Z" fill="#FFDFD5"/>
<path d="M292.53 324.143L464.478 275.468C464.478 275.468 464.05 213.663 385.667 209.285C362.117 207.969 340.925 229.426 322.78 247.147C304.635 264.866 292.53 324.143 292.53 324.143Z" fill="#12115A"/>
<path d="M353.491 275.904L414.753 265.437C415.925 265.236 417.041 266.025 417.239 267.2C417.239 267.2 419.635 297.313 429.601 314.448C439.567 331.582 457.109 335.738 457.109 335.738C457.311 336.911 399.648 410.488 399.648 410.488C399.648 410.488 339.231 336.246 339.031 335.074C339.031 335.074 351.348 326.702 354.038 312.99C356.727 299.278 351.728 278.392 351.728 278.392C351.528 277.22 352.317 276.104 353.491 275.904Z" fill="#FFDFD5"/>
<path d="M353.873 275.904L415.135 265.437C416.308 265.236 417.423 266.025 417.622 267.2C417.622 267.2 420.017 297.313 429.983 314.448C423.999 324.143 383.782 328.131 353.94 301.228C356.63 287.516 352.11 278.392 352.11 278.392C351.91 277.22 352.699 276.104 353.873 275.904Z" fill="#12115A"/>
<path d="M331.173 259.027C331.173 230.629 353.839 207.61 381.797 207.61C409.758 207.61 432.422 230.631 432.422 259.027C432.422 287.423 409.811 307.573 381.853 307.573C353.896 307.573 331.173 287.425 331.173 259.027Z" fill="#FFDFD5"/>
<path d="M331.173 259.027C331.173 230.629 353.839 207.61 381.797 207.61C409.758 207.61 432.422 230.631 432.422 259.027C432.422 287.423 409.811 307.573 381.853 307.573C353.896 307.573 331.173 287.425 331.173 259.027Z" fill="#FFDFD5"/>
<path d="M336.118 328.131L399.515 410.992L459.164 330.434C459.164 330.434 514.726 347.237 534.64 369.935C570.758 411.107 616.953 544.979 590.782 590.597C577.042 614.549 537.264 626.696 537.264 626.696C537.264 626.696 242.1 628.033 232.206 626.349C215.431 623.495 192.606 613.898 187.002 584.911C181.398 555.925 221.186 411.013 247.681 384.598C282.334 350.052 336.118 328.131 336.118 328.131Z" fill="white"/>
<path d="M399.568 414.173C399.228 414.173 398.907 414.012 398.703 413.741L336.024 330.327C335.665 329.85 335.761 329.17 336.24 328.811C336.718 328.452 337.398 328.547 337.757 329.027L399.563 411.279L460.247 329.327C460.604 328.845 461.282 328.746 461.762 329.101C462.243 329.456 462.344 330.134 461.987 330.616L400.439 413.735C400.235 414.01 399.914 414.173 399.572 414.174C399.57 414.173 399.57 414.173 399.568 414.173Z" fill="#12115A"/>
<path d="M349.435 283.017C349.435 277.523 353.78 273.071 359.139 273.071C364.499 273.071 368.844 277.523 368.844 283.017C368.844 288.51 364.499 292.962 359.139 292.962C353.778 292.962 349.435 288.51 349.435 283.017Z" fill="#EBB1B1"/>
<path d="M440.519 266.266C438.303 266.432 436.175 268.09 435.228 270.647L432.508 279.852C430.422 279.405 428.012 280.245 426.335 282.251L405.256 306.699L386.404 316.415C386.404 316.415 376.066 318.833 368.773 305.921C365.725 300.558 364.527 292.498 364.527 292.498C363.876 288.122 361.668 283.496 357.074 283.872C352.483 284.248 350.724 289.747 351.375 294.121L354.782 325.019L354.58 344.224L281.784 466.384C281.784 466.384 297.032 480.64 316.009 489.602C334.987 498.56 357.695 502.219 357.695 502.219L407.987 374.895L445.63 325.69L452.85 304.2C453.728 300.755 452.093 297.309 449.198 296.285L452.406 283.309C453.319 279.739 451.551 276.125 448.456 275.25C447.471 274.973 446.478 275.036 445.542 275.323L445.637 274.941C446.898 271.532 445.591 267.796 442.715 266.61C441.997 266.315 441.256 266.21 440.519 266.266Z" fill="#FFDFD5"/>
<path d="M440.519 266.266C438.303 266.432 436.175 268.09 435.228 270.647L432.508 279.852C430.422 279.405 428.012 280.245 426.335 282.251L405.256 306.699L386.404 316.415C386.404 316.415 376.066 318.833 368.773 305.921C365.725 300.558 364.527 292.498 364.527 292.498C363.876 288.122 361.668 283.496 357.074 283.872C352.483 284.248 350.724 289.747 351.375 294.121L354.782 325.019L354.58 344.224L281.784 466.384C281.784 466.384 297.032 480.64 316.009 489.602C334.987 498.56 357.695 502.219 357.695 502.219L407.987 374.895L445.63 325.69L452.85 304.2C453.728 300.755 452.093 297.309 449.198 296.285L452.406 283.309C453.319 279.739 451.551 276.125 448.456 275.25C447.471 274.973 446.478 275.036 445.542 275.323L445.637 274.941C446.898 271.532 445.591 267.796 442.715 266.61C441.997 266.315 441.256 266.21 440.519 266.266Z" fill="#FFDFD5"/>
<path d="M343.235 207.686C343.235 207.686 337.638 190.706 372.448 179.924C388.509 174.949 401.516 176.213 410.822 185.557C420.127 194.901 423.688 199.88 435.957 202.691C448.223 205.503 462.445 193.504 476.935 199.939C497.123 208.903 490.981 221.337 498.533 232.556C506.089 243.776 524.78 239.239 523.443 258.62C523.409 258.907 491.756 268.044 491.855 267.992C489.159 257.367 481.786 252.533 481.786 252.533C481.786 252.533 484.762 264.925 478.906 271.784C479.139 271.803 458.686 277.68 458.686 277.68C458.686 277.68 461.693 224.418 424.333 240.882C413.312 241.392 418.37 228.969 402.131 222.026C390.752 217.162 372.509 225.365 360.537 222.592C348.565 219.818 343.235 207.686 343.235 207.686Z" fill="#12115A"/>
<path d="M422.61 250.946C420.888 245.752 424.28 239.956 430.182 237.998C436.087 236.04 442.268 238.664 443.991 243.856C445.714 249.049 442.322 254.846 436.416 256.804C430.514 258.761 424.329 256.139 422.61 250.946Z" fill="#FFDFD5"/>
<path d="M302.359 321.255C302.359 321.255 285.891 325.764 285.98 326.024C280.247 321.925 278.419 301.937 278.419 301.937C278.419 301.937 271.598 314.822 273.816 329.746C274.142 329.233 260.587 333.496 260.587 333.496C260.587 333.496 246.092 276.509 277.678 255.658C290.238 247.364 296.673 249.525 302.882 242.414C309.091 235.303 305.124 217.784 316.263 210.32C330.831 200.56 341.901 205.961 341.901 205.961C341.901 205.961 342.556 209.751 347.328 214.929C351.629 219.597 355.476 221.635 355.476 221.635C355.476 221.635 348 221.851 344.042 233.668C340.087 245.485 351.207 264.214 339.565 277.008C323.508 294.654 314.523 284.936 306.899 294.389C295.964 307.944 302.359 321.255 302.359 321.255Z" fill="#12115A"/>
<path d="M252.512 334.669C249.232 307.239 247.878 279.59 260.081 263.156C268.594 251.689 276.553 248.793 283.574 246.238C287.701 244.734 291.602 243.317 295.074 240.252C299.23 236.584 300.281 231.809 301.497 226.282C302.934 219.755 304.561 212.36 311.842 205.36C317.184 200.226 323.94 198.612 331.379 200.696C336.909 202.245 340.82 205.259 340.985 205.385L339.655 207.094C339.619 207.065 335.868 204.185 330.734 202.762C324.005 200.898 318.154 202.296 313.345 206.92C306.538 213.464 305.052 220.216 303.614 226.746C302.37 232.4 301.196 237.738 296.508 241.873C292.727 245.21 288.641 246.696 284.315 248.272C277.58 250.722 269.946 253.501 261.821 264.446C250.071 280.272 251.436 307.424 254.664 334.411L252.512 334.669Z" fill="#12115A"/>
<path d="M528.675 255.662C526.843 244.807 522.914 242.641 517.478 239.646C513.49 237.45 508.971 234.959 504.378 228.584C500.053 222.586 498.882 217.721 497.849 213.428C496.321 207.079 495.112 202.063 483.639 196.066C476.331 192.25 468.825 193.724 460.879 195.286C453.253 196.786 444.61 198.486 435.06 195.619C427.895 193.468 423.661 189.02 419.566 184.717C412.371 177.155 404.93 169.335 380.602 172.229C367.893 173.74 359.004 181.941 353.782 188.556C348.071 195.793 345.37 202.77 345.343 202.841L343.321 202.069C343.433 201.775 346.144 194.757 352.044 187.266C359.899 177.29 369.686 171.348 380.348 170.08C405.751 167.061 413.572 175.277 421.136 183.225C425.216 187.511 429.068 191.56 435.682 193.545C444.721 196.257 452.722 194.683 460.463 193.161C468.792 191.522 476.663 189.975 484.643 194.144C496.992 200.598 498.365 206.307 499.958 212.92C500.945 217.018 502.063 221.664 506.139 227.315C510.447 233.295 514.739 235.66 518.527 237.746C524.043 240.787 528.808 243.411 530.814 255.299L528.675 255.662Z" fill="#12115A"/>
<path d="M406.662 253.958C406.662 248.465 411.005 244.012 416.365 244.012C421.724 244.012 426.071 248.465 426.071 253.958C426.071 259.451 421.724 263.903 416.365 263.903C411.005 263.903 406.662 259.449 406.662 253.958Z" fill="#EBB1B1"/>
<path d="M395.809 246.327C394.6 243.642 395.07 240.829 396.854 240.044C398.642 239.259 401.073 240.798 402.282 243.483C403.491 246.169 403.025 248.982 401.237 249.767C399.448 250.552 397.018 249.013 395.809 246.327Z" fill="#12115A"/>
<path d="M357.088 264.022C355.856 261.392 356.276 258.609 358.028 257.809C359.779 257.006 362.197 258.49 363.429 261.12C364.661 263.751 364.241 266.533 362.491 267.334C360.74 268.136 358.322 266.654 357.088 264.022Z" fill="#12115A"/>
<path d="M378.352 272.076C378.117 272.076 377.873 272.057 377.624 272.013C376.457 271.805 375.46 271.113 374.664 269.956C372.634 267.011 374.509 264.342 375.787 263.343L380.85 259.405L374.765 249.886C374.524 249.507 374.633 249.005 375.012 248.764C375.39 248.524 375.892 248.633 376.133 249.011L382.615 259.153C382.841 259.506 382.76 259.974 382.43 260.232L376.784 264.623C376.536 264.822 374.362 266.659 375.999 269.033C376.54 269.816 377.177 270.281 377.896 270.412C379.124 270.64 380.268 269.858 380.279 269.851L390.047 262.396C390.404 262.123 390.914 262.194 391.185 262.549C391.457 262.906 391.388 263.416 391.033 263.687L381.236 271.161C381.162 271.218 379.926 272.076 378.352 272.076Z" fill="#12115A"/>
<path d="M396.627 283.828C396.314 283.828 396.016 283.645 395.882 283.339C395.702 282.929 395.891 282.449 396.302 282.27C396.352 282.247 401.363 280.026 403.732 275.972C406.079 271.956 405.504 269.295 405.497 269.268C405.395 268.831 405.669 268.396 406.106 268.294C406.545 268.193 406.979 268.466 407.08 268.904C407.111 269.037 407.804 272.225 405.134 276.792C402.492 281.311 397.175 283.66 396.95 283.758C396.844 283.807 396.734 283.828 396.627 283.828Z" fill="#12115A"/>
<path d="M250.676 629.076C234.557 629.076 219.035 625.657 209.598 618.38C209.124 618.015 209.036 617.335 209.401 616.862C209.766 616.388 210.446 616.3 210.919 616.665C220.874 624.343 239.541 628.138 259.632 626.57C279.735 625 296.999 618.376 304.689 609.283C327.592 582.193 341.976 547.716 342.119 547.37L359.43 503.992C354.803 503.268 339.071 500.346 318.76 491.596C304.427 485.416 285.352 470.827 281.118 467.523L222.855 541.079C222.484 541.549 221.802 541.627 221.335 541.254C220.867 540.884 220.786 540.202 221.159 539.734L280.092 465.332C280.271 465.106 280.531 464.961 280.818 464.929C281.104 464.898 281.391 464.979 281.616 465.158C281.836 465.334 303.753 482.766 319.619 489.608C343.492 499.893 360.9 502.021 361.074 502.04C361.408 502.08 361.706 502.271 361.878 502.562C362.05 502.85 362.079 503.203 361.955 503.517L344.128 548.184C343.98 548.545 329.473 583.324 306.345 610.679C296.296 622.559 272.92 629.074 250.676 629.076Z" fill="#12115A"/>
<path d="M295.859 532.063L255.187 536.433C250.687 536.453 247.051 540.112 247.07 544.612C247.089 549.112 264.653 551.4 269.155 551.381L283.408 551.679L283.169 552.405C282.107 552.103 280.978 552.004 279.815 552.168L222.36 561.875C217.902 562.497 207.16 566.023 207.785 570.481C208.41 574.939 214.751 576.857 219.209 576.234L242.283 574.19L210.136 579.84C205.678 580.463 200.38 584.264 201.005 588.722C201.629 593.176 206.67 594.727 211.128 594.104C211.128 594.104 223.663 593.649 234.945 593.038C237.117 592.92 237.189 593.432 239.357 593.245C241.888 593.027 272.36 588.871 272.146 588.924C267.402 590.177 224.543 594.261 224.543 594.261C220.045 594.429 215.11 596.755 215.28 601.255C215.45 605.751 223.52 607.894 228.018 607.726L241.842 607.474C236.372 608.062 231.169 609.319 231.23 612.081C231.351 617.666 245.366 620.198 249.28 620.057L290.666 617.662C290.666 617.662 320.498 611.714 332.604 610.973C344.709 610.232 465.815 622.754 465.815 622.754C465.815 622.754 480.858 597.118 473.225 565.909C467.041 541.564 452.36 535.753 452.36 535.753L346.271 548.123C346.271 548.123 324.41 536.132 320.916 536.147L295.859 532.063Z" fill="#FFDFD5"/>
<path d="M464.164 623.581C463.924 623.581 463.679 623.501 463.479 623.335C463.017 622.955 462.95 622.273 463.328 621.81C463.395 621.728 467.333 616.843 470.565 608.257C473.552 600.321 476.53 587.499 473.753 571.495C469.106 544.698 449.524 536.325 449.328 536.242C448.886 536.059 448.615 535.608 448.663 535.133C448.711 534.657 449.066 534.269 449.536 534.178C449.817 534.124 477.729 528.702 495.714 521.732C505.684 517.872 518.863 519.385 533.822 526.116C545.028 531.156 553.434 537.423 553.518 537.486C553.996 537.845 554.093 538.523 553.734 539.002C553.375 539.482 552.697 539.577 552.217 539.218C551.891 538.974 519.367 514.896 496.497 523.753C481.842 529.431 460.719 534.082 452.955 535.696C455.027 536.919 458.033 538.978 461.238 542.118C466.525 547.298 473.357 556.534 475.888 571.127C478.755 587.658 475.659 600.909 472.559 609.115C469.188 618.034 465.175 622.981 465.005 623.188C464.787 623.447 464.478 623.581 464.164 623.581Z" fill="#12115A"/>
<path d="M263.912 503.243C263.702 503.243 263.49 503.182 263.303 503.056C262.808 502.72 262.68 502.046 263.017 501.551L280.545 475.801C280.881 475.306 281.555 475.178 282.05 475.514C282.544 475.85 282.672 476.524 282.336 477.019L264.808 502.77C264.598 503.079 264.258 503.243 263.912 503.243Z" fill="#12115A"/>
<path d="M272.876 510.116C272.666 510.116 272.454 510.054 272.268 509.928C271.774 509.592 271.646 508.918 271.982 508.423L289.51 482.669C289.846 482.174 290.52 482.046 291.015 482.382C291.51 482.719 291.638 483.393 291.302 483.887L273.774 509.642C273.563 509.949 273.223 510.116 272.876 510.116Z" fill="#12115A"/>
<path d="M284.495 517.347C284.311 517.347 284.124 517.299 283.954 517.202C283.436 516.902 283.259 516.239 283.559 515.722L299.158 488.756C299.457 488.239 300.12 488.063 300.638 488.361C301.155 488.661 301.333 489.323 301.033 489.841L285.434 516.806C285.234 517.154 284.869 517.347 284.495 517.347Z" fill="#12115A"/>
<path d="M463.582 539.117C463.078 539.117 462.627 538.764 462.522 538.252C462.402 537.665 462.78 537.094 463.364 536.974L493.882 530.713C494.467 530.591 495.04 530.971 495.16 531.555C495.28 532.142 494.902 532.713 494.318 532.833L463.8 539.094C463.729 539.111 463.654 539.117 463.582 539.117Z" fill="#12115A"/>
<path d="M470.099 547.426C469.596 547.426 469.144 547.072 469.039 546.56C468.918 545.974 469.297 545.403 469.881 545.283L500.395 539.018C500.982 538.896 501.553 539.276 501.673 539.86C501.793 540.446 501.415 541.018 500.831 541.138L470.316 547.403C470.246 547.42 470.171 547.426 470.099 547.426Z" fill="#12115A"/>
<path d="M476.776 557.033C476.272 557.033 475.821 556.679 475.716 556.168C475.596 555.581 475.974 555.01 476.558 554.89L507.076 548.629C507.661 548.507 508.234 548.887 508.354 549.471C508.474 550.058 508.096 550.629 507.512 550.749L476.994 557.01C476.923 557.027 476.849 557.033 476.776 557.033Z" fill="#12115A"/>
<path d="M480.749 568.921C480.247 568.921 479.794 568.567 479.689 568.056C479.568 567.469 479.947 566.898 480.531 566.778L511.049 560.513C511.637 560.391 512.207 560.771 512.327 561.355C512.447 561.942 512.069 562.513 511.485 562.633L480.967 568.898C480.896 568.915 480.821 568.921 480.749 568.921Z" fill="#12115A"/>
<path d="M482.896 580.148C482.365 580.148 481.902 579.758 481.824 579.218C481.74 578.625 482.151 578.077 482.743 577.993L513.585 573.604C514.181 573.524 514.726 573.931 514.81 574.523C514.894 575.115 514.483 575.663 513.891 575.747L483.048 580.136C482.999 580.144 482.947 580.148 482.896 580.148Z" fill="#12115A"/>
<path d="M482.483 593.105C481.933 593.105 481.461 592.687 481.406 592.129C481.347 591.533 481.782 591.004 482.376 590.945L513.376 587.874C513.974 587.818 514.501 588.25 514.56 588.844C514.619 589.44 514.184 589.969 513.59 590.028L482.59 593.099C482.556 593.103 482.52 593.105 482.483 593.105Z" fill="#12115A"/>
<path d="M480.856 605.646C480.306 605.646 479.836 605.23 479.781 604.67C479.721 604.074 480.155 603.545 480.751 603.486L511.746 600.392C512.346 600.333 512.871 600.766 512.931 601.362C512.99 601.958 512.556 602.487 511.96 602.546L480.965 605.64C480.928 605.644 480.892 605.646 480.856 605.646Z" fill="#12115A"/>
<path d="M478.224 615.655C477.659 615.655 477.183 615.215 477.145 614.644C477.105 614.048 477.555 613.531 478.153 613.491L509.237 611.412C509.834 611.365 510.35 611.825 510.39 612.421C510.43 613.017 509.98 613.534 509.382 613.575L478.298 615.653C478.274 615.655 478.249 615.655 478.224 615.655Z" fill="#12115A"/>
<path d="M296.887 523.86C296.72 523.86 296.551 523.822 296.394 523.74C295.861 523.467 295.653 522.813 295.924 522.282L310.152 494.568C310.425 494.035 311.078 493.827 311.609 494.1C312.142 494.373 312.35 495.027 312.079 495.558L297.851 523.272C297.66 523.646 297.28 523.86 296.887 523.86Z" fill="#12115A"/>
<path d="M308.257 529.559C308.1 529.559 307.942 529.525 307.791 529.454C307.25 529.196 307.023 528.551 307.281 528.01L320.706 499.899C320.964 499.358 321.61 499.131 322.15 499.389C322.691 499.647 322.918 500.292 322.66 500.833L309.235 528.944C309.049 529.332 308.662 529.559 308.257 529.559Z" fill="#12115A"/>
<path d="M321.982 535.324C321.841 535.324 321.7 535.297 321.56 535.238C321.01 535.005 320.752 534.371 320.985 533.819L333.118 505.127C333.351 504.577 333.987 504.317 334.537 504.552C335.087 504.785 335.345 505.419 335.112 505.971L322.981 534.663C322.805 535.075 322.404 535.324 321.982 535.324Z" fill="#12115A"/>
<path d="M336.33 539.209C336.208 539.209 336.084 539.188 335.963 539.144C335.4 538.942 335.11 538.321 335.312 537.757L345.882 508.45C346.084 507.889 346.705 507.596 347.269 507.799C347.832 508.001 348.122 508.622 347.92 509.186L337.35 538.493C337.19 538.936 336.773 539.209 336.33 539.209Z" fill="#12115A"/>
<path d="M411.815 323.316C411.626 323.316 411.435 323.249 411.28 323.115C410.942 322.819 410.908 322.307 411.204 321.969C411.284 321.878 419.26 312.742 422.492 307.801C426.041 302.38 434.561 284.705 434.813 282.243C434.854 281.838 434.842 281.296 434.55 281.025C434.191 280.69 433.505 280.782 433.499 280.782C433.058 280.857 432.638 280.559 432.563 280.117C432.489 279.674 432.787 279.256 433.228 279.181C433.379 279.157 434.718 278.96 435.66 279.838C436.284 280.421 436.542 281.286 436.429 282.407C436.114 285.498 426.927 303.994 423.852 308.691C420.559 313.728 412.757 322.661 412.426 323.039C412.266 323.222 412.04 323.316 411.815 323.316Z" fill="#12115A"/>
<path d="M420.983 334.854C420.844 334.854 420.702 334.818 420.574 334.743C420.187 334.516 420.057 334.019 420.284 333.632C420.443 333.36 436.145 306.51 438.246 300.216C440.362 293.869 445.349 274.473 445.399 274.278C445.511 273.843 445.953 273.583 446.388 273.694C446.822 273.805 447.083 274.248 446.972 274.683C446.923 274.878 441.921 294.329 439.787 300.732C437.635 307.186 422.337 333.345 421.688 334.455C421.533 334.711 421.262 334.854 420.983 334.854Z" fill="#12115A"/>
<path d="M427.041 340.55C426.883 340.55 426.722 340.504 426.581 340.406C426.213 340.152 426.119 339.646 426.373 339.278C426.522 339.062 441.223 317.66 443.07 313.113C444.927 308.534 447.914 296.923 447.944 296.807C448.057 296.371 448.502 296.11 448.934 296.222C449.369 296.333 449.631 296.776 449.518 297.21C449.394 297.691 446.474 309.044 444.575 313.724C442.661 318.434 428.321 339.312 427.712 340.198C427.553 340.427 427.299 340.55 427.041 340.55Z" fill="#12115A"/>
<path d="M217.874 578.117C217.476 578.117 217.129 577.827 217.071 577.422C217.006 576.979 217.314 576.566 217.759 576.501C218.855 576.341 244.701 572.592 250.93 572.257C257.097 571.927 276.192 569.732 276.385 569.709C276.828 569.66 277.233 569.977 277.284 570.424C277.336 570.869 277.017 571.272 276.57 571.323C276.377 571.346 257.233 573.547 251.018 573.879C244.864 574.209 218.261 578.069 217.994 578.108C217.952 578.113 217.912 578.117 217.874 578.117Z" fill="#12115A"/>
<path d="M223.827 594.559C223.405 594.559 223.048 594.232 223.017 593.802C222.987 593.355 223.323 592.968 223.772 592.935C223.921 592.926 238.842 591.883 250.877 590.572C260.541 589.524 274.587 587.472 274.729 587.451C275.176 587.385 275.584 587.694 275.649 588.137C275.714 588.58 275.407 588.993 274.964 589.058C274.822 589.079 260.747 591.136 251.052 592.186C238.985 593.498 224.035 594.543 223.884 594.555C223.865 594.557 223.846 594.559 223.827 594.559Z" fill="#12115A"/>
<path d="M246.77 608.612C242.442 608.612 239.292 608.376 239.241 608.372C238.794 608.337 238.46 607.948 238.494 607.499C238.529 607.05 238.918 606.722 239.367 606.752C239.449 606.76 247.63 607.371 255.709 606.597C262.887 605.908 275.292 605.23 275.416 605.224C275.856 605.197 276.247 605.543 276.272 605.992C276.297 606.439 275.953 606.823 275.504 606.848C275.38 606.855 263.009 607.531 255.864 608.217C252.685 608.519 249.494 608.612 246.77 608.612Z" fill="#12115A"/>
<path d="M274.217 553.459C274.201 553.459 274.192 553.459 274.19 553.459C273.741 553.457 273.378 553.093 273.38 552.644C273.382 552.197 273.745 551.834 274.192 551.834C274.196 551.834 274.2 551.834 274.221 551.834C274.688 551.834 281.375 551.817 286.998 550.927C287.443 550.858 287.858 551.158 287.927 551.603C287.997 552.046 287.696 552.462 287.252 552.531C281.509 553.44 274.708 553.459 274.217 553.459Z" fill="#12115A"/>
<path d="M354.53 297.462L362.982 295.945C362.982 295.945 361.918 286.235 358.379 286.136C351.715 285.948 354.53 297.462 354.53 297.462Z" fill="white"/>
<path d="M427.626 288.28L432.351 290.368C432.351 290.368 437.474 282.337 435.113 280.379C431.946 277.749 427.626 288.28 427.626 288.28Z" fill="white"/>
<path d="M439.609 277.796L444.724 278.507C444.724 278.507 447.444 269.377 444.636 268.143C440.87 266.484 439.609 277.796 439.609 277.796Z" fill="white"/>
<path d="M447.261 285.27L451.31 285.937C451.31 285.937 453.465 277.367 451.241 276.207C448.258 274.651 447.261 285.27 447.261 285.27Z" fill="white"/>
<path d="M448.686 305.984L451.94 306.554C451.94 306.554 453.675 299.25 451.887 298.262C449.488 296.935 448.686 305.984 448.686 305.984Z" fill="white"/>
<path d="M319.795 403.287C319.652 403.287 319.509 403.249 319.377 403.171C318.993 402.94 318.869 402.441 319.1 402.055L353.05 345.598L354.198 317.236C353.9 315.578 350.496 296.549 350.34 293.076C350.227 290.599 349.964 284.797 354.036 282.965C355.915 282.119 357.924 282.075 359.691 282.839C361.16 283.475 363.169 284.993 364.413 288.619C366.252 293.982 369.195 303.799 369.451 304.655C369.69 305.15 371.804 309.413 375.391 311.995C378.816 314.461 383.698 315.5 384.726 315.697C386.338 315.156 397.44 311.37 401.188 308.486C404.078 306.263 408.463 301.186 412.331 296.705C414.008 294.763 415.591 292.929 417.016 291.363C418.166 290.099 419.354 288.682 420.502 287.31C424.555 282.474 428.052 278.297 430.974 278.881C431.414 278.969 431.698 279.397 431.612 279.836C431.526 280.276 431.098 280.562 430.657 280.474C428.686 280.081 425 284.476 421.749 288.353C420.59 289.736 419.392 291.165 418.219 292.454C416.81 294.005 415.232 295.831 413.563 297.766C409.452 302.525 405.201 307.447 402.181 309.772C397.937 313.038 385.564 317.131 385.039 317.303C384.915 317.343 384.781 317.355 384.651 317.332C384.405 317.29 378.575 316.283 374.444 313.311C370.294 310.324 368.047 305.486 367.954 305.281C367.939 305.247 367.925 305.213 367.914 305.176C367.883 305.071 364.781 294.694 362.877 289.142C362.046 286.716 360.721 285.051 359.046 284.325C357.703 283.744 356.16 283.784 354.702 284.441C352 285.658 351.801 289.449 351.961 292.998C352.118 296.446 355.774 316.825 355.812 317.032C355.822 317.089 355.827 317.15 355.823 317.207L354.664 345.865C354.658 346.001 354.618 346.134 354.549 346.251L320.492 402.886C320.34 403.146 320.07 403.287 319.795 403.287Z" fill="#12115A"/>
<path d="M447.261 301.994C447.19 301.994 447.118 301.985 447.047 301.964C446.642 301.845 446.409 301.421 446.527 301.016L450.905 285.994C451.024 285.589 451.449 285.356 451.853 285.475C452.257 285.593 452.49 286.017 452.372 286.422L447.994 301.444C447.897 301.777 447.591 301.994 447.261 301.994Z" fill="#12115A"/>
<path d="M361.173 501.616C361.051 501.616 360.927 501.595 360.805 501.551C360.241 501.349 359.951 500.728 360.153 500.164C361.702 495.876 398.158 395.019 404.587 382.619C408.429 375.208 412.594 369.753 416.624 364.48C419.392 360.857 422.007 357.434 424.266 353.666C426.772 349.492 429.498 345.926 432.382 342.152C435.938 337.501 439.613 332.69 443.273 326.225C449.738 314.799 450.798 307.018 450.808 306.941C450.884 306.349 451.423 305.929 452.018 306.005C452.611 306.082 453.031 306.622 452.956 307.214C452.914 307.545 451.856 315.456 445.158 327.292C441.426 333.889 437.703 338.76 434.103 343.468C431.257 347.193 428.568 350.711 426.123 354.781C423.8 358.653 421.151 362.123 418.345 365.796C414.372 370.997 410.266 376.374 406.511 383.616C400.147 395.892 362.569 499.853 362.191 500.902C362.033 501.343 361.616 501.616 361.173 501.616Z" fill="#12115A"/>
<path d="M431.079 250.031C430.917 250.031 430.755 249.979 430.615 249.874C430.281 249.618 430.216 249.139 430.472 248.803L436.916 240.374C437.172 240.04 437.652 239.975 437.988 240.231C438.322 240.487 438.387 240.966 438.131 241.302L431.687 249.731C431.536 249.928 431.309 250.031 431.079 250.031Z" fill="#12115A"/>
<path d="M439.51 246.348C439.489 246.348 439.47 246.348 439.449 246.347L434.063 245.921C433.643 245.888 433.328 245.519 433.362 245.099C433.394 244.679 433.761 244.364 434.183 244.398L439.569 244.824C439.99 244.857 440.305 245.225 440.27 245.646C440.24 246.045 439.906 246.348 439.51 246.348Z" fill="#12115A"/>
<path d="M278.9 302.659C278.873 302.659 278.847 302.657 278.82 302.655C278.4 302.611 278.096 302.235 278.14 301.815C278.302 300.279 278.405 298.625 278.516 296.876C278.954 289.954 279.45 282.107 283.776 276.895C288.061 271.734 292.973 270.655 298.172 269.513C301.671 268.743 305.291 267.949 308.876 265.806C310.409 264.889 311.775 263.074 312.978 261.474C313.406 260.905 313.809 260.368 314.203 259.896C318.277 254.989 319.255 248.308 320.292 241.233C321.268 234.571 322.276 227.68 326.119 222.344C329.993 216.963 335.608 215.032 341.04 213.166C342.148 212.786 343.294 212.391 344.406 211.974C344.799 211.825 345.24 212.026 345.389 212.421C345.538 212.816 345.338 213.256 344.942 213.405C343.811 213.829 342.656 214.226 341.537 214.61C336.091 216.482 330.948 218.25 327.359 223.236C323.734 228.27 322.752 234.972 321.803 241.455C320.781 248.427 319.726 255.633 315.377 260.872C315.007 261.317 314.615 261.84 314.199 262.392C312.91 264.106 311.448 266.048 309.659 267.118C305.86 269.389 302.118 270.21 298.499 271.005C293.563 272.09 288.901 273.113 284.951 277.871C280.942 282.701 280.463 290.282 280.04 296.971C279.93 298.738 279.823 300.405 279.658 301.973C279.618 302.367 279.286 302.659 278.9 302.659Z" fill="#EAF1F1"/>
<path d="M512.923 261.12C512.906 261.12 512.889 261.12 512.871 261.118C512.449 261.09 512.132 260.727 512.161 260.305C512.499 255.264 505.315 252.042 498.369 248.925C493.59 246.782 489.079 244.755 486.748 242.093C484.722 239.774 483.049 236.613 481.278 233.267C478.283 227.607 475.187 221.755 470.108 219.471C462.382 215.996 457.384 216.715 451.597 217.545C445.301 218.451 438.166 219.477 426.047 215.334C419.257 213.013 413.735 208.95 408.394 205.02C397.698 197.149 387.594 189.713 368.061 195.548C358.308 198.461 349.192 211.346 348.98 211.645C348.758 211.972 348.319 212.077 347.97 211.879C347.603 211.668 347.477 211.202 347.685 210.836C347.759 210.706 357.237 197.187 367.622 194.085C387.885 188.032 398.77 196.043 409.298 203.79C414.545 207.652 419.971 211.644 426.537 213.888C438.309 217.912 445.252 216.913 451.377 216.033C457.149 215.202 462.6 214.419 470.733 218.076C476.291 220.577 479.511 226.664 482.627 232.55C484.355 235.817 485.988 238.901 487.898 241.086C490.007 243.499 494.371 245.456 498.993 247.531C506.418 250.862 514.094 254.305 513.683 260.408C513.658 260.811 513.322 261.12 512.923 261.12Z" fill="#EAF1F1"/>
<path d="M465.528 275.453C465.52 275.453 465.513 275.453 465.505 275.453C465.083 275.442 464.751 275.09 464.764 274.668C464.774 274.299 464.797 273.816 464.823 273.232C465.009 269.207 465.398 260.834 463.771 252.649C461.786 242.664 457.476 236.418 450.955 234.086C446.856 232.619 442.369 232.358 437.617 232.079C431.769 231.737 425.72 231.382 419.249 228.878C415.433 227.401 410.377 223.15 406.685 220.044C406.1 219.553 405.56 219.098 405.08 218.701C399.217 213.867 394.27 211.999 388.003 212.257C381.522 212.522 375.644 215.003 370.456 217.19C364.636 219.645 359.611 221.767 355.266 220.18C354.868 220.034 354.666 219.597 354.811 219.2C354.956 218.802 355.394 218.598 355.791 218.745C359.573 220.126 364.342 218.113 369.864 215.785C375.17 213.546 381.184 211.008 387.942 210.731C394.625 210.456 399.87 212.425 406.055 217.523C406.54 217.922 407.082 218.38 407.67 218.875C411.076 221.74 416.223 226.068 419.803 227.453C426.05 229.871 431.977 230.218 437.709 230.555C442.572 230.839 447.165 231.109 451.471 232.648C458.532 235.173 463.173 241.803 465.27 252.353C466.934 260.721 466.539 269.219 466.349 273.304C466.323 273.877 466.302 274.353 466.29 274.714C466.281 275.126 465.941 275.453 465.528 275.453Z" fill="#EAF1F1"/>
<path d="M305.993 295.43C305.911 295.43 305.827 295.416 305.745 295.388C305.346 295.25 305.134 294.817 305.271 294.417C307.235 288.695 311.252 287.093 315.904 285.236C321.193 283.125 327.775 280.499 334.196 270.758C336.208 267.708 335.53 259.934 334.985 253.689C334.745 250.921 334.536 248.532 334.571 246.792C334.716 239.751 335.621 234.237 346.021 227.367C346.373 227.134 346.848 227.231 347.079 227.583C347.312 227.934 347.215 228.408 346.864 228.641C337.063 235.116 336.238 240.043 336.099 246.822C336.064 248.478 336.28 250.944 336.508 253.555C337.073 260.037 337.776 268.103 335.472 271.599C328.787 281.739 321.959 284.464 316.472 286.655C311.817 288.514 308.453 289.854 306.717 294.914C306.608 295.231 306.312 295.43 305.993 295.43Z" fill="#EAF1F1"/>
<path d="M300.304 321.482C299.966 321.482 299.658 321.257 299.566 320.917C299.438 320.441 296.547 309.079 305.147 293.741C305.354 293.373 305.82 293.243 306.188 293.449C306.557 293.655 306.687 294.121 306.481 294.49C298.205 309.25 301.014 320.414 301.043 320.525C301.15 320.932 300.907 321.35 300.5 321.459C300.435 321.474 300.369 321.482 300.304 321.482Z" fill="#EAF1F1"/>
<path d="M390.797 314.738L390.499 314.581L390.35 314.377L390.152 314.272L390.797 314.738Z" fill="#FFDFD5"/>
<path d="M429.899 296.984C429.865 297.051 429.83 297.118 429.796 297.183L429.899 296.984Z" fill="#FFDFD5"/>
<path d="M462.117 622.275C462.094 622.275 462.069 622.273 462.044 622.271C460.795 622.162 337.06 611.309 329.003 612.698C320.947 614.081 304.215 616.951 293.546 618.537C282.947 620.113 250.865 620.592 249.505 620.613C249.501 620.613 249.498 620.613 249.494 620.613C249.051 620.613 248.688 620.258 248.682 619.813C248.676 619.364 249.033 618.995 249.482 618.989C249.815 618.984 282.816 618.491 293.307 616.932C303.959 615.349 320.677 612.48 328.711 611.101C336.993 609.678 457.078 620.206 462.185 620.655C462.632 620.695 462.963 621.089 462.923 621.536C462.888 621.958 462.535 622.275 462.117 622.275Z" fill="#12115A"/>
<path d="M393.624 237.012C395.232 234.765 398.135 234.229 400.606 235.184C403.988 236.489 405.584 231.093 402.229 229.798C397.313 227.9 391.839 229.867 388.837 234.061C386.725 237.011 391.528 239.942 393.624 237.012Z" fill="#12115A"/>
<path d="M353.363 242.068C348.644 242.847 345.095 245.984 343.704 250.554C343.263 252.008 344.531 253.585 345.916 253.858C347.532 254.177 348.777 253.106 349.22 251.647C349.824 249.66 351.734 248.012 353.774 247.674C355.271 247.426 356.49 246.278 356.371 244.664C356.27 243.256 354.87 241.82 353.363 242.068Z" fill="#12115A"/>
<path d="M495.496 524.731C495.028 524.731 494.596 524.425 494.457 523.954L481.225 479.091C481.055 478.518 481.383 477.917 481.956 477.747C482.529 477.577 483.131 477.905 483.301 478.478L496.533 523.34C496.703 523.913 496.375 524.515 495.802 524.685C495.7 524.718 495.597 524.731 495.496 524.731Z" fill="#12115A"/>
<path d="M651.554 100.516L663.27 160.02C663.27 160.02 635.663 174.24 615.383 183.962C592.356 194.998 569.264 198.287 556.78 191.978C544.931 185.988 546.012 171.939 546.012 171.939L539.644 161.76C539.644 161.76 529.651 155.799 528.298 152.35C526.465 147.666 521.262 137.417 528.367 134.059C535.468 130.702 550.279 127.183 560.688 126.316C571.101 125.449 575.25 125.424 578.187 120.349C581.121 115.276 546.906 108.057 542.207 102.46C537.508 96.8641 540.824 89.6386 540.824 89.6386C540.824 89.6386 555.153 89.5985 568.798 94.0182C582.439 98.436 592.15 103.303 610.317 106.888C628.482 110.471 651.554 100.516 651.554 100.516Z" fill="#97D3D3"/>
<path d="M527.958 146.706C527.958 146.706 498.663 143.877 501.78 133.637C504.897 123.4 506.815 125.417 514.39 125.159C521.965 124.901 538.005 128.018 538.005 128.018L565.807 128.135C565.807 128.135 545.381 134.442 540.595 138.101C535.809 141.763 527.958 146.706 527.958 146.706Z" fill="#97D3D3"/>
<path d="M568.737 177.155C568.719 177.155 568.7 177.155 568.683 177.153L560.035 176.557C559.628 176.528 559.315 176.187 559.324 175.78C559.326 175.663 559.538 163.991 557.422 160.139C556.408 158.29 555.428 157.304 554.589 157.287C553.772 157.289 552.805 158.166 551.782 159.873C549.35 163.932 546.917 171.545 546.892 171.622C546.764 172.025 546.332 172.246 545.933 172.118C545.53 171.99 545.309 171.56 545.437 171.159C545.538 170.84 547.948 163.298 550.471 159.088C551.814 156.848 553.153 155.759 554.566 155.759C554.584 155.759 554.601 155.759 554.618 155.759C556.075 155.786 557.43 156.978 558.761 159.401C560.772 163.059 560.875 172.38 560.862 175.081L568.79 175.627C569.21 175.656 569.529 176.02 569.499 176.442C569.472 176.845 569.136 177.155 568.737 177.155Z" fill="#12115A"/>
<path d="M540.074 161.993C539.697 161.993 539.369 161.714 539.317 161.329C539.285 161.078 538.504 155.138 538.593 151.746C538.712 147.366 540.123 141.554 543.009 138.441C543.878 137.505 545.066 137.159 546.453 137.442C549.4 138.046 552.491 141.367 553.421 143.969C555.029 148.48 556.488 155.604 556.897 157.677L564.43 158.301C564.85 158.336 565.163 158.706 565.129 159.126C565.095 159.547 564.724 159.862 564.304 159.825L556.194 159.153C555.852 159.124 555.569 158.872 555.506 158.534C555.489 158.445 553.799 149.584 551.981 144.484C551.104 142.03 548.323 139.387 546.145 138.941C545.288 138.766 544.629 138.943 544.13 139.482C541.9 141.889 540.251 146.948 540.121 151.79C540.035 155.062 540.826 161.073 540.834 161.132C540.889 161.55 540.595 161.934 540.177 161.989C540.14 161.991 540.108 161.993 540.074 161.993Z" fill="#12115A"/>
<path d="M558.499 162.266C558.48 162.266 558.461 162.266 558.442 162.265L550.233 161.655C549.813 161.625 549.496 161.258 549.528 160.836C549.559 160.416 549.931 160.101 550.346 160.131L558.555 160.74C558.975 160.771 559.292 161.138 559.26 161.56C559.231 161.961 558.897 162.266 558.499 162.266Z" fill="#12115A"/>
<path d="M526.312 147.109C526.299 147.109 526.283 147.109 526.27 147.107C525.848 147.084 525.525 146.725 525.548 146.303C525.575 145.808 526.27 134.168 531.849 132.786C535.054 131.993 537.581 132.826 539.575 135.334C541.833 138.168 542.127 142.215 542.138 142.385C542.167 142.806 541.848 143.17 541.428 143.199C540.998 143.228 540.643 142.909 540.614 142.488C540.612 142.452 540.335 138.741 538.379 136.287C536.294 133.664 533.99 133.832 532.216 134.272C528.486 135.196 527.238 143.331 527.072 146.387C527.053 146.794 526.715 147.109 526.312 147.109Z" fill="#12115A"/>
<path d="M508.732 170.172L499.494 164.067L531.826 111.873L541.065 117.977L508.732 170.172ZM500.98 163.743L508.394 168.642L539.577 118.306L532.162 113.407L500.98 163.743Z" fill="#12115A"/>
<path d="M500.603 176.519L497.11 174.154L502.943 165.059L506.436 167.423L500.603 176.519ZM498.603 173.847L500.288 174.987L504.941 167.731L503.256 166.591L498.603 173.847Z" fill="#12115A"/>
<path d="M494.971 182.079L495.498 180.346L500.363 172.448L500.871 172.605L494.971 182.079Z" fill="#12115A"/>
<path d="M544.692 121.78L528.065 110.725L530.013 107.629L546.638 118.688L544.692 121.78ZM529.555 110.406L544.363 120.252L545.146 119.009L530.34 109.161L529.555 110.406Z" fill="#12115A"/>
<path d="M539.46 115.225L535.503 112.593L540.857 104.111L544.82 106.771L539.46 115.225ZM536.997 112.274L539.138 113.699L543.33 107.086L541.183 105.644L536.997 112.274Z" fill="#12115A"/>
<path d="M547.459 109.829L537.111 102.959L538.992 99.964L549.341 106.834L547.459 109.829ZM538.603 102.638L547.129 108.299L547.847 107.155L539.321 101.494L538.603 102.638Z" fill="#12115A"/>
<path d="M507.798 161.276L507.215 162.2L511.413 164.846L511.995 163.922L507.798 161.276Z" fill="#12115A"/>
<path d="M512.371 153.927L511.789 154.852L515.987 157.498L516.569 156.573L512.371 153.927Z" fill="#12115A"/>
<path d="M512.105 159.088L511.694 159.741L513.793 161.064L514.204 160.411L512.105 159.088Z" fill="#12115A"/>
<path d="M516.965 146.641L516.382 147.565L520.58 150.211L521.162 149.286L516.965 146.641Z" fill="#12115A"/>
<path d="M516.698 151.766L516.286 152.419L518.385 153.742L518.797 153.089L516.698 151.766Z" fill="#12115A"/>
<path d="M521.572 139.372L520.99 140.297L525.188 142.942L525.77 142.018L521.572 139.372Z" fill="#12115A"/>
<path d="M521.283 144.467L520.871 145.12L522.97 146.443L523.382 145.79L521.283 144.467Z" fill="#12115A"/>
<path d="M663.671 159.469L652.13 100.853L729.378 75.5566L749.612 149.242L663.671 159.469Z" stroke="#12115A"/>
<path d="M122.439 119.511L103.297 181.861C103.297 181.861 117.595 184.692 129.666 189.264C141.735 193.837 152.471 197.775 152.471 197.775C152.471 197.775 156.079 213.267 162.707 214.553C169.335 215.836 173.558 209.906 169.61 186.779C166.957 171.232 170.905 166.379 175.89 165.714C180.877 165.049 187.335 172.091 187.277 183.506C187.22 194.92 181.878 212.48 182.31 218.504C182.829 225.757 187.763 227.168 187.763 227.168C187.763 227.168 184.496 238.458 190.681 241.165C196.866 243.873 204.731 236.17 204.731 236.17C204.731 236.17 214.359 236.546 223.296 230.52C232.233 224.496 248.361 205.312 239.138 182.478C229.914 159.646 227.808 153.272 210.549 143.898C193.29 134.524 122.439 119.511 122.439 119.511Z" fill="#97D3D3"/>
<path d="M151.614 197.724C151.337 197.724 151.07 197.573 150.934 197.309C150.852 197.149 142.601 181.227 137.904 175.942C133.524 171.014 130.623 171.627 130.594 171.637C130.188 171.748 129.767 171.507 129.657 171.098C129.546 170.691 129.786 170.271 130.195 170.16C130.346 170.12 133.973 169.219 139.046 174.926C143.871 180.354 151.95 195.945 152.292 196.606C152.485 196.981 152.34 197.443 151.963 197.636C151.853 197.695 151.732 197.724 151.614 197.724Z" fill="#12115A"/>
<path d="M209.214 227.487C209.126 227.648 209.038 227.808 208.954 227.969C208.935 228.003 208.916 228.033 208.901 228.068C208.828 228.205 208.755 228.339 208.687 228.473C206.402 232.721 204.794 235.609 204.748 235.681C204.607 235.933 204.347 236.075 204.08 236.075C203.954 236.075 203.828 236.04 203.709 235.975C203.342 235.769 203.209 235.303 203.415 234.936C203.457 234.864 205.019 232.064 207.243 227.923C207.334 227.758 207.422 227.59 207.514 227.418C207.598 227.258 207.686 227.098 207.77 226.937L208.228 227.113L209.214 227.487Z" fill="#12115A"/>
<path d="M230.101 176.941C230.067 177.071 226.694 190.277 221.281 203.024C219.31 207.677 216.586 213.258 213.92 218.483C213.759 218.797 213.599 219.11 213.439 219.419L212.002 218.873C212.163 218.564 212.323 218.25 212.484 217.933C215.161 212.696 217.896 207.088 219.875 202.428C225.242 189.784 228.589 176.697 228.619 176.567C228.726 176.158 229.139 175.91 229.547 176.013C229.956 176.116 230.205 176.532 230.101 176.941Z" fill="#12115A"/>
<path d="M209.97 227.774C209.531 227.931 209.26 228.018 209.191 228.037C209.179 228.041 209.168 228.045 209.156 228.045C209.092 228.064 209.027 228.072 208.962 228.072C208.943 228.072 208.92 228.072 208.9 228.068C208.671 228.053 208.457 227.931 208.328 227.732C208.289 227.675 208.259 227.61 208.236 227.537C208.19 227.396 208.19 227.247 208.228 227.113L209.214 227.487L209.97 227.774Z" fill="#12115A"/>
<path d="M240.305 196.083C240.152 196.522 236.519 206.932 229.108 215.47C227.023 217.872 224.582 219.905 222.144 221.585C222.133 221.589 222.125 221.597 222.114 221.605C221.984 221.692 221.85 221.784 221.72 221.868C221.51 222.009 221.3 222.147 221.094 222.281C221.075 222.292 221.06 222.304 221.04 222.315L219.272 221.643L219.26 221.669L219.199 221.647C219.211 221.639 219.218 221.635 219.23 221.627C219.253 221.616 219.272 221.605 219.295 221.585C219.642 221.375 219.994 221.154 220.345 220.928C220.353 220.921 220.364 220.917 220.372 220.909C223.031 219.179 225.724 217.04 227.955 214.469C235.163 206.16 238.822 195.69 238.861 195.583C238.998 195.185 239.43 194.971 239.831 195.109C240.228 195.246 240.442 195.682 240.305 196.083Z" fill="#12115A"/>
<path d="M221.04 222.315L219.272 221.643L219.26 221.669L221.063 222.357L221.094 222.281C221.075 222.292 221.06 222.304 221.04 222.315ZM221.04 222.315L219.272 221.643L219.26 221.669L221.063 222.357L221.094 222.281C221.075 222.292 221.06 222.304 221.04 222.315ZM225.097 222.708L223.229 221.998L222.144 221.585L220.372 220.909L216.445 219.416L214.928 218.835L213.935 218.457L212.495 217.911L203.713 214.568L202.193 213.987L187.382 208.345L186.351 207.952L186.286 207.929L181.981 218.3L182.015 218.315L183.051 218.709L195.485 223.446L197.253 224.118L207.243 227.923L208.687 228.473L209.68 228.851L210.539 229.18L211.2 229.432L211.414 229.512L240.179 240.464L241.512 237.244L243.154 233.294L244.48 230.093L225.097 222.708ZM239.564 239.047L213.045 228.947L211.723 228.442L210.753 228.076L210.207 227.865L209.974 227.774H209.97L209.214 227.487L208.228 227.113L207.77 226.937L198.182 223.285L196.485 222.636C196.485 222.636 196.485 222.643 196.482 222.636L183.478 217.685L183.444 217.674L186.893 209.342L186.955 209.369L201.711 214.984L203.228 215.561L212.896 219.244H212.9L213.931 219.641L214.42 219.828L215.937 220.405L217.129 220.86H217.133L217.862 221.138L219.199 221.646L219.26 221.669L221.063 222.357L222.049 222.735L222.095 222.75L223.963 223.461L225.296 223.969L226.029 224.248L229.227 225.47H229.231L230.258 225.86H230.262L233.463 227.079L234.193 227.357L237.394 228.58L238.425 228.969H238.429L243.021 230.719L239.564 239.047ZM221.04 222.315L219.272 221.643L219.26 221.669L221.063 222.357L221.094 222.281C221.075 222.292 221.06 222.304 221.04 222.315ZM221.04 222.315L219.272 221.643L219.26 221.669L221.063 222.357L221.094 222.281C221.075 222.292 221.06 222.304 221.04 222.315Z" fill="#12115A"/>
<path d="M243.154 233.294L242.18 232.908L240.5 236.839L241.512 237.244L250.68 240.899L251.432 239.15V239.146L251.627 238.684L252.361 236.965L243.154 233.294ZM250.393 238.756L250.088 239.471L241.963 236.231L242.776 234.337L250.898 237.572L250.596 238.286L250.393 238.756Z" fill="#12115A"/>
<path d="M258.981 241.507L257.155 241.314L248.355 237.987L248.415 237.45L258.981 241.507Z" fill="#12115A"/>
<path d="M185.92 202.241L182.821 209.644L182.394 210.672L181.385 213.074L180.957 214.098L178.104 220.925L181.565 222.265L183.051 218.709L183.479 217.685L186.955 209.369L187.383 208.345L189.377 203.582L185.92 202.241ZM186.351 207.952L182.015 218.316L180.957 220.844L179.567 220.302L181.989 214.503L183.853 210.053L186.523 203.666L187.917 204.204L186.351 207.952Z" fill="#12115A"/>
<path d="M182.822 209.644L175.434 206.745L174.402 206.344L174.238 206.737L172.515 210.798L172.534 210.809L173.569 211.21L180.957 214.098L181.989 214.503L183.853 210.053L182.822 209.644ZM181.385 213.074L173.993 210.186L173.978 210.183L175.002 207.765H175.006L182.394 210.672L181.385 213.074Z" fill="#12115A"/>
<path d="M173.6 201.828L168.749 213.453L172.087 214.751L173.569 211.21L173.993 210.187L175.006 207.765L175.434 206.745L176.939 203.127L173.6 201.828ZM174.402 206.344L174.238 206.737L172.534 210.809L171.484 213.327L170.204 212.834L174.207 203.253L175.483 203.75L174.402 206.344Z" fill="#12115A"/>
<path d="M237.61 228.046L235.782 232.735L236.814 233.138L238.642 228.448L237.61 228.046Z" fill="#12115A"/>
<path d="M229.472 224.879L227.644 229.569L228.676 229.971L230.504 225.281L229.472 224.879Z" fill="#12115A"/>
<path d="M233.673 226.512L232.76 228.856L233.489 229.141L234.403 226.797L233.673 226.512Z" fill="#12115A"/>
<path d="M222.345 222.113L222.12 222.69L222.095 222.751L221.159 225.159L220.517 226.8L219.486 226.401L219.65 225.977L220.571 223.61H220.575L221.064 222.355L221.314 221.71L222.345 222.113Z" fill="#12115A"/>
<path d="M225.533 223.34L224.62 225.684L225.35 225.968L226.263 223.624L225.533 223.34Z" fill="#12115A"/>
<path d="M213.188 218.527L211.361 223.217L212.393 223.619L214.22 218.929L213.188 218.527Z" fill="#12115A"/>
<path d="M217.414 220.188L216.5 222.532L217.23 222.816L218.143 220.472L217.414 220.188Z" fill="#12115A"/>
<path d="M198.479 220.636C198.493 220.623 198.508 220.609 198.521 220.596C200.68 216.925 202.152 212.774 203.954 208.96C206.074 204.472 208.23 200 210.237 195.46C212.331 190.212 214.117 184.837 215.181 179.288C215.318 177.409 215.345 175.527 215.249 173.646C214.988 172.473 214.672 171.316 214.304 170.174C212.508 166.822 210.297 163.701 208.681 160.249C207.485 157.694 206.234 155.197 204.725 152.839C204.064 152.13 203.375 151.454 202.657 150.804C200.346 149.233 197.906 147.811 195.401 146.572C193.254 145.838 191.067 145.269 188.84 144.841C182.413 144.305 175.951 144.589 169.509 144.813C168.958 144.832 168.406 144.845 167.854 144.859C167.998 146.062 168.114 147.273 168.21 148.491C168.426 151.257 168.385 154.036 168.519 156.804C169.432 160.482 170.933 164.025 171.577 167.779C171.583 167.807 171.589 167.838 171.592 167.866C172.796 166.573 174.287 165.926 175.888 165.712C180.875 165.047 187.333 172.089 187.275 183.504C187.218 194.918 181.876 212.478 182.307 218.502C182.808 225.485 187.4 227.054 187.74 227.16C189.22 226.198 190.734 225.268 192.31 224.376C194.409 223.184 196.48 221.967 198.479 220.636Z" fill="#97D3D3"/>
<path d="M187.784 227.019C187.44 227.019 187.129 226.786 187.043 226.439C186.941 226.03 187.19 225.615 187.6 225.514C187.669 225.497 194.49 223.744 197.863 218.218C201.27 212.639 209.061 194.051 211.544 184.747C213.905 175.902 211.685 170.16 211.663 170.103C211.506 169.712 211.697 169.267 212.09 169.11C212.482 168.953 212.927 169.144 213.084 169.538C213.185 169.79 215.511 175.81 213.021 185.141C210.459 194.734 202.699 213.229 199.167 219.012C195.46 225.084 188.273 226.92 187.967 226.996C187.906 227.012 187.845 227.019 187.784 227.019Z" fill="#12115A"/>
<path d="M123.111 119.163L103.675 182.472L9.53472 166.55L0 164.938V164.388L0.09168 163.854L9.36282 165.424L102.918 181.246L121.766 119.859L32.9742 90.1505L33.15 89.6271L33.318 89.1267L33.5511 89.2031L123.111 119.163Z" fill="#12115A"/>
</svg>
